<svg xmlns="http://www.w3.org/2000/svg" id="Layer_1" data-name="Layer 1" viewBox="0 0 79.05 124.97"><defs><style>.cls-1{fill:#ed1c24}.cls-2{fill:none;stroke:#000;stroke-miterlimit:10;stroke-width:6px}</style></defs><title>flt-heart-red</title><path d="M400.49,232.88c2,17-2,34.17-8.75,49.9-5.68,13.27-13.27,25.64-21.12,37.81-11.68-9.34-20.27-23.26-27.15-36.82-7.43-14.65-14-30.09-15.34-46.43a32.26,32.26,0,0,1,.62-10.87c3.19-12.12,18.92-19.13,30.24-13.49,8.36,4.17,13.08,13.47,14.14,22.66,0,.26.06.51.08.77a31.87,31.87,0,0,0-1.21,3.06c-2.54,7.56-2.6,15.7-1.83,23.62,2-8.78,3.92-17.75,3-26.68,2.83-6.31,7.64-11.84,14-14.54a10.17,10.17,0,0,1,5.19-1C397.65,221.57,399.9,227.73,400.49,232.88Z" class="cls-1" transform="translate(-324.95 -208)"/><path d="M373.21,236.41c2.83-6.31,7.64-11.84,14-14.54a10.17,10.17,0,0,1,5.19-1c5.21.67,7.46,6.83,8.05,12,2,17-2,34.17-8.75,49.9-5.68,13.27-13.27,25.64-21.12,37.81-1.44,2.24-2.9,4.48-4.35,6.71" class="cls-2" transform="translate(-324.95 -208)"/><path d="M373.21,236.41c.88,8.93-1.08,17.9-3,26.68-.77-7.92-.71-16.06,1.83-23.62A31.87,31.87,0,0,1,373.21,236.41Z" class="cls-2" transform="translate(-324.95 -208)"/><path d="M388.82,330.08a50.56,50.56,0,0,1-18.2-9.49c-11.68-9.34-20.27-23.26-27.15-36.82-7.43-14.65-14-30.09-15.34-46.43a32.26,32.26,0,0,1,.62-10.87c3.19-12.12,18.92-19.13,30.24-13.49,8.36,4.17,13.08,13.47,14.14,22.66,0,.26.06.51.08.77" class="cls-2" transform="translate(-324.95 -208)"/></svg>