<svg xmlns="http://www.w3.org/2000/svg" width="34" height="25" fill="none" viewBox="0 0 34 25"><path stroke="#000" stroke-linecap="round" stroke-linejoin="round" d="M1 20.4811C1.80677 20.607 3.73429 21.2678 4.05556 19.9867C4.16687 19.5428 4.32215 18.839 5.00617 19.0331C6.3296 19.4086 6.11959 22.9533 7.41667 22.9533C7.87413 22.9533 8.08102 21.233 8.33333 20.9049C8.96786 20.0798 10.4275 20.6103 11.287 20.1632C12.5065 19.529 11.8684 23.1318 12.034 23.9068C12.2095 24.7284 13.2436 19.8454 13.8333 19.8454C14.8956 19.8454 14.6931 22.0045 16.4136 20.8343C18.7663 19.2341 17.7497 19.2651 19.8086 20.693C20.3959 21.1003 20.4955 18.9998 21.2006 19.0331C22.2853 19.0844 22.7075 19.5683 23 20.4811"/><ellipse fill="#000" rx="2.986" ry="10.863" transform="matrix(0.952012 0.30606 -0.380988 0.92458 27.0186 10.9577)"/></svg>