<svg width="145" height="148" viewBox="0 0 145 148" fill="none" xmlns="http://www.w3.org/2000/svg">
<ellipse cx="72.5" cy="74" rx="72.5" ry="74" fill="#AD00FF"/>
<ellipse cx="72.5" cy="74" rx="72.5" ry="74" fill="url(#paint0_linear)"/>
<ellipse cx="72.5" cy="74" rx="72.5" ry="74" fill="url(#paint1_linear)"/>
<path d="M37.6941 53.7129C37.7577 53.4955 38.2322 51.7679 39.1176 48.5301C40.0347 45.2966 41.0949 41.4045 42.2982 36.8537C43.606 31.8004 44.8706 27.1611 46.0918 22.9357C46.2417 22.3425 46.3937 21.9596 46.5478 21.7869C46.7336 21.6185 47.0236 21.5128 47.4177 21.4699C47.9115 21.4082 48.301 21.3969 48.5864 21.4359C48.8717 21.4749 49.0347 21.578 49.0754 21.745C49.1523 21.8847 49.1476 22.1425 49.0613 22.5182C46.9184 30.0088 45.5359 34.9065 44.9138 37.2114C46.8766 35.0253 49.0152 34.0905 51.3297 34.407C52.5662 34.5761 53.5351 35.1446 54.2366 36.1126C54.9698 37.0849 55.2044 38.4896 54.9405 40.3268C54.7312 41.7838 54.4449 43.2142 54.0816 44.6179C53.75 46.0259 53.2369 48.0227 52.5421 50.6084L51.4047 54.8129C51.2548 55.4061 51.0711 55.7847 50.8536 55.9487C50.6723 56.0854 50.3665 56.1889 49.9362 56.2592C49.2839 56.2992 48.8943 56.3105 48.7675 56.2932C48.4821 56.2541 48.3033 56.1489 48.2309 55.9776C48.1586 55.8062 48.1814 55.5348 48.2994 55.1633L48.6059 54.0426C50.5082 47.3266 51.6072 42.9391 51.903 40.8802C52.0805 39.6449 52.0335 38.7342 51.7621 38.148C51.5269 37.5345 51.0289 37.1757 50.268 37.0716C49.4437 36.9589 48.5421 37.2716 47.5632 38.0098C46.5888 38.7162 45.6868 39.7071 44.857 40.9824C44.0273 42.2577 43.4126 43.6108 43.0131 45.0419L40.7519 53.356C40.602 53.9491 40.4183 54.3277 40.2008 54.4917C40.0195 54.6284 39.7137 54.7319 39.2833 54.8023C38.631 54.8422 38.2573 54.8557 38.1622 54.8427C37.8769 54.8037 37.698 54.6985 37.6256 54.5271C37.5533 54.3557 37.5761 54.0843 37.6941 53.7129ZM68.6717 53.638C69.043 53.9794 69.2104 54.2768 69.174 54.5302C69.1467 54.7203 69.0537 54.9175 68.895 55.1219C68.02 56.2618 67.0094 57.1086 65.863 57.6624C64.7483 58.2205 63.4301 58.3954 61.9082 58.1873C59.9471 57.8868 58.5752 56.9725 57.7926 55.4443C57.0462 53.8889 56.821 51.9687 57.1169 49.6838C57.4854 47.1181 58.1573 44.8039 59.1326 42.741C60.1078 40.6782 61.3545 39.0885 62.8727 37.972C64.3908 36.8554 66.1169 36.4294 68.0509 36.6939C69.763 36.9281 70.9266 37.604 71.5419 38.7216C72.1618 39.8076 72.3785 41 72.1919 42.2986C71.8643 44.5792 70.6311 46.2999 68.4923 47.4608C66.3581 48.59 63.5562 49.0788 60.0866 48.9272L59.9637 49.7825C59.7316 51.3979 59.8168 52.7176 60.2193 53.7415C60.6218 54.7655 61.3937 55.3555 62.5351 55.5116C63.4228 55.633 64.1499 55.5225 64.7163 55.1801C65.3145 54.8421 65.9422 54.2981 66.5995 53.5483C66.9168 53.1396 67.234 52.9569 67.5511 53.0002C67.7413 53.0262 67.9247 53.0998 68.1013 53.2208L68.6717 53.638ZM67.4172 39.4171C65.8954 39.209 64.586 39.7727 63.4889 41.1083C62.3964 42.4123 61.5098 44.0835 60.829 46.122C66.038 46.3177 68.8427 45.0218 69.2431 42.2345C69.4843 40.5557 68.8757 39.6166 67.4172 39.4171ZM87.9899 57.249C88.2752 57.288 88.5423 57.5667 88.7911 58.0852C89.0444 58.572 89.1438 59.0055 89.0892 59.3856C89.0528 59.639 88.7695 59.9232 88.2393 60.2383C87.7454 60.526 87.1451 60.7669 86.4383 60.9609C85.7633 61.1592 85.1245 61.2172 84.5221 61.1348C83.7295 61.0264 83.193 60.5978 82.9127 59.8489C82.6686 59.0727 82.6125 58.2253 82.7445 57.3067C81.8107 58.4063 80.8566 59.1963 79.8825 59.6767C78.94 60.1614 77.8822 60.3236 76.7091 60.1631C75.1918 59.9233 74.0781 59.012 73.368 57.4292C72.6896 55.8508 72.5346 53.7787 72.9032 51.213C73.2762 48.8418 73.9435 46.6722 74.905 44.7044C75.9029 42.7093 77.1246 41.1808 78.5703 40.1189C80.0522 39.0297 81.6967 38.6087 83.5039 38.8558C84.7404 39.0249 85.9041 39.7009 86.9949 40.8836L87.0154 40.741C87.1698 40.1162 87.3218 39.7333 87.4714 39.5922C87.6572 39.4239 87.9631 39.3204 88.3889 39.2817C89.168 39.2591 89.5892 39.2521 89.6527 39.2608C89.9697 39.3041 90.1644 39.4115 90.2368 39.5829C90.3091 39.7543 90.2863 40.0257 90.1683 40.3971C87.1359 50.479 85.4559 56.6602 85.1283 58.9408C85.6448 58.7207 86.2838 58.3237 87.0451 57.7495C87.5164 57.3941 87.8313 57.2273 87.9899 57.249ZM84.6862 49.1911C85.5669 46.2111 86.1004 44.2978 86.2866 43.4512C85.8476 42.9067 85.3904 42.4889 84.915 42.1978C84.4758 41.8794 83.9392 41.6768 83.3051 41.5901C81.8467 41.3906 80.5848 41.8478 79.5196 42.9617C78.4544 44.0756 77.6133 45.4301 76.9962 47.0252C76.4109 48.6245 76.0022 50.1189 75.7703 51.5083C75.2379 55.2142 75.907 57.1951 77.7776 57.451C79.1092 57.6331 80.4006 56.97 81.6518 55.4616C82.9392 53.926 83.9507 51.8358 84.6862 49.1911ZM110.765 30.1337C111.291 30.0764 111.728 30.0716 112.076 30.1193C112.362 30.1583 112.541 30.2635 112.613 30.4349C112.69 30.5746 112.685 30.8324 112.599 31.2081C110.447 38.5359 108.876 43.957 107.887 47.4712C106.901 50.9537 106.15 53.8223 105.632 56.0768C104.964 58.9246 104.523 61.0928 104.31 62.5815C104.246 63.0249 104.128 63.2833 103.956 63.3567C103.815 63.4344 103.498 63.504 103.004 63.5657C102.615 63.577 102.372 63.5762 102.277 63.5631C101.897 63.5111 101.661 63.3497 101.571 63.079C101.481 62.8082 101.499 62.3424 101.626 61.6816C101.708 61.1115 101.86 60.3894 102.083 59.5156C101.299 60.7002 100.363 61.5895 99.2751 62.1836C98.2193 62.7821 97.0731 62.9967 95.8366 62.8276C94.3194 62.5878 93.2057 61.6765 92.4955 60.0937C91.8171 58.5152 91.6622 56.4432 92.0308 53.8775C92.4037 51.5062 93.071 49.3367 94.0326 47.3689C94.9987 45.3694 96.2046 43.8387 97.6503 42.7769C99.1322 41.6877 100.777 41.2666 102.584 41.5138C103.884 41.6916 105.111 42.2631 106.265 43.2285C107.464 38.9354 108.522 35.0591 109.439 31.5995C109.589 31.0064 109.741 30.6235 109.895 30.4508C110.081 30.2824 110.371 30.1767 110.765 30.1337ZM105.557 45.7961C105.009 45.3336 104.493 44.9885 104.009 44.7607C103.56 44.5057 103.035 44.3369 102.433 44.2545C100.974 44.0551 99.7124 44.5123 98.6472 45.6262C97.582 46.7401 96.7409 48.0946 96.1238 49.6896C95.5384 51.289 95.1298 52.7834 94.8979 54.1728C94.3655 57.8787 95.098 59.8683 97.0954 60.1415C98.3953 60.3192 99.698 59.5769 101.004 57.9146C102.309 56.2522 103.285 54.1894 103.929 51.7261L105.557 45.7961ZM41.4151 95.6591C40.8269 94.5774 39.9305 93.9542 38.7257 93.7894C37.9331 93.681 37.2377 93.7958 36.6396 94.1339C36.0777 94.4446 35.7353 95.0276 35.6124 95.8828C35.5032 96.643 35.6409 97.3724 36.0255 98.0709C36.4463 98.7421 37.1954 99.6035 38.2728 100.655C39.6851 102.076 40.6899 103.295 41.2872 104.313C41.8844 105.332 42.0875 106.506 41.8964 107.836C41.637 109.642 40.8117 110.998 39.4205 111.906C38.0293 112.814 36.4301 113.144 34.6229 112.897C33.323 112.719 32.1683 112.206 31.1588 111.358C30.1492 110.509 29.3617 109.465 28.7963 108.225C28.7285 108.022 28.706 107.841 28.7287 107.683C28.7788 107.334 29.1323 107.011 29.7893 106.713C30.2107 106.48 30.5324 106.379 30.7543 106.409C30.9762 106.44 31.1731 106.644 31.345 107.023C31.7431 107.853 32.2568 108.553 32.886 109.123C33.547 109.698 34.2896 110.042 35.1139 110.155C36.1602 110.298 37.0436 110.112 37.7642 109.597C38.5164 109.086 38.954 108.403 39.0768 107.548C39.1951 106.724 39.0122 105.972 38.5279 105.292C38.08 104.585 37.3762 103.746 36.4165 102.775L35.5746 101.885C34.5063 100.77 33.7324 99.7436 33.2528 98.806C32.7779 97.8367 32.6314 96.7185 32.8134 95.4515C33.0364 93.8995 33.7528 92.7379 34.9627 91.9667C36.1726 91.1956 37.5861 90.9206 39.203 91.1417C41.7077 91.4843 43.3557 92.727 44.147 94.87C44.2148 95.0731 44.2396 95.2379 44.2214 95.3646C44.1941 95.5547 44.0921 95.7022 43.9154 95.8072C43.7386 95.9122 43.4283 96.0474 42.9843 96.2128C42.5811 96.3191 42.3002 96.3615 42.1417 96.3398C41.8563 96.3008 41.6141 96.0738 41.4151 95.6591ZM57.7017 93.8171C59.2552 94.0296 60.3825 94.8458 61.0837 96.2659C61.7894 97.6543 61.9808 99.473 61.6577 101.722C61.2846 104.319 60.6036 106.697 59.6147 108.855C58.6304 110.981 57.3769 112.618 55.8541 113.766C54.3631 114.919 52.714 115.372 50.9069 115.124C49.5753 114.942 48.3639 114.373 47.2729 113.416L46.3671 116.684C45.7224 118.921 45.2525 120.617 44.9573 121.771C44.8075 122.364 44.6396 122.745 44.4538 122.914C44.2997 123.086 44.0256 123.194 43.6315 123.237C43.106 123.294 42.6689 123.299 42.3201 123.252C42.0348 123.213 41.8559 123.107 41.7835 122.936C41.7066 122.796 41.7113 122.539 41.7976 122.163C41.8067 122.099 42.3856 120.095 43.5342 116.151C44.955 111.436 46.1558 107.24 47.1366 103.563C48.1537 99.8588 48.8374 96.7872 49.1878 94.3483C49.2788 93.7148 49.3991 93.3275 49.5487 93.1865C49.7345 93.0181 50.072 92.9189 50.5612 92.889C51.3404 92.8663 51.7616 92.8593 51.825 92.868C52.1104 92.907 52.2892 93.0122 52.3616 93.1836C52.4385 93.3233 52.4315 93.5969 52.3407 94.0043L51.7682 96.639C52.7337 95.5438 53.6696 94.7675 54.5759 94.3101C55.4866 93.821 56.5286 93.6566 57.7017 93.8171ZM51.0581 112.384C52.5482 112.587 53.8327 112.085 54.9116 110.876C56.0221 109.671 56.8973 108.192 57.5372 106.439C58.177 104.686 58.6061 103.049 58.8245 101.528C59.0202 100.166 58.9575 99.0272 58.6365 98.1113C58.3155 97.1954 57.727 96.6788 56.8709 96.5618C56.0149 96.4447 55.0883 96.8186 54.0913 97.6834C53.0987 98.5166 52.183 99.6025 51.3442 100.941C50.537 102.284 49.9586 103.61 49.609 104.919L47.9812 110.849C48.529 111.311 49.027 111.67 49.4753 111.925C49.9598 112.153 50.4874 112.306 51.0581 112.384ZM78.4885 114.488C78.7738 114.527 79.0409 114.806 79.2897 115.324C79.543 115.811 79.6424 116.245 79.5878 116.625C79.5514 116.878 79.2681 117.162 78.7379 117.477C78.244 117.765 77.6437 118.006 76.9369 118.2C76.2619 118.398 75.6232 118.456 75.0208 118.374C74.2281 118.266 73.6917 117.837 73.4113 117.088C73.1672 116.312 73.1111 115.464 73.2431 114.546C72.3093 115.645 71.3553 116.435 70.3811 116.916C69.4386 117.401 68.3808 117.563 67.2077 117.402C65.6904 117.162 64.5767 116.251 63.8666 114.668C63.1882 113.09 63.0333 111.018 63.4018 108.452C63.7748 106.081 64.4421 103.911 65.4037 101.944C66.4015 99.9484 67.6232 98.4199 69.0689 97.358C70.5508 96.2688 72.1953 95.8478 74.0025 96.095C75.239 96.2641 76.4027 96.94 77.4936 98.1227L77.514 97.9802C77.6685 97.3553 77.8205 96.9724 77.97 96.8314C78.1558 96.663 78.4617 96.5595 78.8875 96.5208C79.6666 96.4982 80.0879 96.4912 80.1513 96.4999C80.4683 96.5433 80.663 96.6506 80.7354 96.822C80.8078 96.9934 80.7849 97.2648 80.6669 97.6362C77.6345 107.718 75.9545 113.899 75.6269 116.18C76.1434 115.96 76.7824 115.563 77.5437 114.989C78.015 114.633 78.33 114.466 78.4885 114.488ZM75.1848 106.43C76.0655 103.45 76.599 101.537 76.7853 100.69C76.3462 100.146 75.889 99.728 75.4136 99.4369C74.9744 99.1185 74.4378 98.9159 73.8037 98.8292C72.3453 98.6297 71.0835 99.0869 70.0183 100.201C68.9531 101.315 68.1119 102.669 67.4949 104.264C66.9095 105.864 66.5008 107.358 66.2689 108.747C65.7365 112.453 66.4056 114.434 68.2762 114.69C69.6078 114.872 70.8992 114.209 72.1504 112.701C73.4378 111.165 74.4493 109.075 75.1848 106.43ZM94.2732 117.131C93.4978 118.253 92.5189 119.104 91.3363 119.685C90.1899 120.239 88.8875 120.416 87.4291 120.216C85.4045 119.907 83.9851 118.986 83.1707 117.454C82.3926 115.894 82.1516 113.972 82.4475 111.687C83.0254 107.664 84.2392 104.39 86.0889 101.866C87.9387 99.3413 90.2903 98.2742 93.1437 98.6644C94.1537 98.8349 95.0164 99.2435 95.7316 99.8904C96.4469 100.537 96.9536 101.398 97.2519 102.472C97.3423 102.743 97.3693 103.005 97.3329 103.258C97.2874 103.575 97.0291 103.798 96.5579 103.927L95.8036 104.115C95.568 104.18 95.371 104.201 95.2124 104.179C94.9588 104.145 94.737 103.888 94.5471 103.41C94.3482 102.769 94.0926 102.298 93.7802 101.997C93.4679 101.696 93.0422 101.509 92.5032 101.435C91.0765 101.24 89.8441 101.717 88.8061 102.867C87.7997 104.022 87.0152 105.432 86.4524 107.099C85.8897 108.766 85.5036 110.328 85.2943 111.785C84.7892 115.301 85.7256 117.222 88.1035 117.547C88.8961 117.656 89.6277 117.513 90.2984 117.121C90.969 116.728 91.5446 116.209 92.0252 115.564C92.3425 115.156 92.6597 114.973 92.9768 115.016C93.167 115.042 93.3504 115.116 93.527 115.237L94.0499 115.647C94.4211 115.989 94.5885 116.286 94.5521 116.54C94.5248 116.73 94.4318 116.927 94.2732 117.131ZM109.328 117.737C109.7 118.079 109.867 118.376 109.831 118.629C109.803 118.819 109.71 119.017 109.552 119.221C108.677 120.361 107.666 121.208 106.52 121.762C105.405 122.32 104.087 122.495 102.565 122.286C100.604 121.986 99.2319 121.072 98.4492 119.543C97.7029 117.988 97.4776 116.068 97.7735 113.783C98.1421 111.217 98.814 108.903 99.7892 106.84C100.764 104.777 102.011 103.188 103.529 102.071C105.047 100.955 106.774 100.529 108.708 100.793C110.42 101.027 111.583 101.703 112.199 102.821C112.818 103.907 113.035 105.099 112.849 106.398C112.521 108.678 111.288 110.399 109.149 111.56C107.015 112.689 104.213 113.178 100.743 113.026L100.62 113.882C100.388 115.497 100.474 116.817 100.876 117.841C101.278 118.865 102.05 119.455 103.192 119.611C104.079 119.732 104.807 119.622 105.373 119.279C105.971 118.941 106.599 118.397 107.256 117.647C107.573 117.239 107.891 117.056 108.208 117.099C108.398 117.125 108.581 117.199 108.758 117.32L109.328 117.737ZM108.074 103.516C106.552 103.308 105.243 103.872 104.146 105.207C103.053 106.511 102.166 108.183 101.486 110.221C106.695 110.417 109.499 109.121 109.9 106.334C110.141 104.655 109.532 103.716 108.074 103.516Z" fill="white"/>
<path d="M37.6941 53.7129L38.648 54.0093L38.6516 53.9982L38.6548 53.987L37.6941 53.7129ZM39.1176 48.5301L38.1546 48.2637L38.1521 48.2729L39.1176 48.5301ZM42.2982 36.8537L43.2659 37.1027L43.2672 37.0976L42.2982 36.8537ZM46.0918 22.9357L47.0534 23.2068L47.0581 23.1905L47.0622 23.1741L46.0918 22.9357ZM46.5478 21.7869L45.8777 21.0491L45.838 21.0851L45.8023 21.1251L46.5478 21.7869ZM47.4177 21.4699L47.52 22.463L47.5278 22.4622L47.5356 22.4612L47.4177 21.4699ZM49.0754 21.745L48.1026 21.9868L48.1338 22.115L48.1974 22.2305L49.0754 21.745ZM49.0613 22.5182L50.0236 22.7868L50.0309 22.7613L50.0368 22.7355L49.0613 22.5182ZM44.9138 37.2114L43.9475 36.9574L45.6573 37.8755L44.9138 37.2114ZM54.2366 36.1126L53.4243 36.7016L53.4298 36.7092L53.4355 36.7167L54.2366 36.1126ZM54.0816 44.6179L53.1126 44.3739L53.1098 44.3845L53.1073 44.3952L54.0816 44.6179ZM52.5421 50.6084L53.5083 50.863L53.5088 50.8613L52.5421 50.6084ZM51.4047 54.8129L50.4385 54.5583L50.4363 54.5664L50.4343 54.5745L51.4047 54.8129ZM50.8536 55.9487L50.2536 55.153L50.2536 55.153L50.8536 55.9487ZM49.9362 56.2592L49.991 57.2564L50.0416 57.2533L50.0916 57.2451L49.9362 56.2592ZM48.2309 55.9776L49.1537 55.5845L48.2309 55.9776ZM48.2994 55.1633L49.2533 55.4597L49.2595 55.4403L49.2649 55.4206L48.2994 55.1633ZM48.6059 54.0426L47.6428 53.7765L47.6404 53.7853L48.6059 54.0426ZM51.7621 38.148L50.8269 38.5103L50.8389 38.5416L50.853 38.572L51.7621 38.148ZM47.5632 38.0098L48.148 38.8167L48.1557 38.8112L48.1632 38.8055L47.5632 38.0098ZM44.857 40.9824L44.0186 40.4421L44.0186 40.4421L44.857 40.9824ZM43.0131 45.0419L42.049 44.7795L42.0472 44.786L43.0131 45.0419ZM40.7519 53.356L39.786 53.1001L39.7837 53.1088L39.7814 53.1176L40.7519 53.356ZM40.2008 54.4917L39.6008 53.696L39.6008 53.696L40.2008 54.4917ZM39.2833 54.8023L39.3382 55.7995L39.3888 55.7964L39.4388 55.7882L39.2833 54.8023ZM37.6256 54.5271L36.7029 54.9202L36.7029 54.9202L37.6256 54.5271ZM38.6548 53.987C38.7217 53.7585 39.2 52.0166 40.083 48.7873L38.1521 48.2729C37.2643 51.5192 36.7937 53.2325 36.7334 53.4388L38.6548 53.987ZM40.0805 48.7964C40.9997 45.5555 42.0616 41.6572 43.2659 37.1027L41.3305 36.6046C40.1282 41.1517 39.0696 45.0378 38.1546 48.2637L40.0805 48.7964ZM43.2672 37.0976C44.5731 32.0518 45.8352 27.4217 47.0534 23.2068L45.1302 22.6645C43.906 26.9004 42.639 31.5489 41.3292 36.6097L43.2672 37.0976ZM47.0622 23.1741C47.1311 22.9015 47.1942 22.7029 47.2484 22.5664C47.3095 22.4126 47.3338 22.4033 47.2933 22.4487L45.8023 21.1251C45.6077 21.3432 45.4789 21.6117 45.388 21.8408C45.2902 22.0872 45.2024 22.3766 45.1214 22.6973L47.0622 23.1741ZM47.2179 22.5247C47.1945 22.5459 47.1926 22.5377 47.2425 22.5196C47.2934 22.501 47.3818 22.4781 47.52 22.463L47.3153 20.4767C46.8243 20.5303 46.2893 20.6762 45.8777 21.0491L47.2179 22.5247ZM47.5356 22.4612C47.9956 22.4037 48.2853 22.404 48.4442 22.4257L48.7286 20.4461C48.3168 20.3897 47.8273 20.4127 47.2998 20.4785L47.5356 22.4612ZM48.4442 22.4257C48.5086 22.4346 48.4662 22.44 48.3832 22.3875C48.3367 22.3581 48.2766 22.3098 48.2208 22.2358C48.1637 22.1601 48.1239 22.0743 48.1026 21.9868L50.0481 21.5032C49.8552 20.7107 49.1181 20.4993 48.7286 20.4461L48.4442 22.4257ZM48.1974 22.2305C48.1534 22.1505 48.1382 22.0856 48.1328 22.0564C48.1274 22.0266 48.129 22.0158 48.1288 22.0314C48.1285 22.046 48.1267 22.0756 48.1199 22.123C48.1132 22.1699 48.1023 22.2288 48.0857 22.301L50.0368 22.7355C50.0887 22.5097 50.1262 22.2777 50.1303 22.0548C50.1341 21.8477 50.1118 21.5474 49.9533 21.2595L48.1974 22.2305ZM48.0989 22.2497C45.9565 29.7386 44.5719 34.6438 43.9475 36.9574L45.8802 37.4654C46.4999 35.1691 47.8802 30.279 50.0236 22.7868L48.0989 22.2497ZM45.6573 37.8755C47.4608 35.8667 49.2879 35.137 51.1875 35.3968L51.4719 33.4172C48.7425 33.0439 46.2924 34.1838 44.1704 36.5473L45.6573 37.8755ZM51.1875 35.3968C52.1669 35.5308 52.8888 35.9627 53.4243 36.7016L55.0489 35.5236C54.1815 34.3266 52.9654 33.6214 51.4719 33.4172L51.1875 35.3968ZM53.4355 36.7167C53.9435 37.3904 54.1952 38.4827 53.9497 40.1913L55.9313 40.4623C56.2137 38.4966 55.9961 36.7795 55.0378 35.5085L53.4355 36.7167ZM53.9497 40.1913C53.7456 41.6124 53.4665 43.0065 53.1126 44.3739L55.0506 44.8618C55.4233 43.4218 55.7168 41.9553 55.9313 40.4623L53.9497 40.1913ZM53.1073 44.3952C52.7793 45.788 52.2694 47.7729 51.5755 50.3554L53.5088 50.8613C54.2044 48.2725 54.7207 46.2638 55.0559 44.8405L53.1073 44.3952ZM51.5759 50.3538L50.4385 54.5583L52.3709 55.0675L53.5083 50.863L51.5759 50.3538ZM50.4343 54.5745C50.3692 54.8319 50.3061 55.0042 50.2542 55.111C50.1975 55.2278 50.1837 55.2056 50.2536 55.153L51.4537 56.7444C51.7411 56.5277 51.9278 56.2342 52.0548 55.9725C52.1867 55.7007 52.2903 55.3871 52.3752 55.0513L50.4343 54.5745ZM50.2536 55.153C50.277 55.1353 50.2627 55.1523 50.1724 55.1829C50.0863 55.212 49.959 55.2442 49.7807 55.2733L50.0916 57.2451C50.5602 57.1686 51.0692 57.0343 51.4537 56.7444L50.2536 55.153ZM49.8813 55.262C49.5598 55.2817 49.3114 55.2938 49.1321 55.299C49.0423 55.3017 48.976 55.3023 48.9301 55.3018C48.8743 55.3012 48.8772 55.2989 48.9097 55.3033L48.6253 57.283C48.7847 57.3048 48.9975 57.3016 49.1774 57.2963C49.3877 57.2902 49.6603 57.2767 49.991 57.2564L49.8813 55.262ZM48.9097 55.3033C48.8509 55.2953 48.8729 55.2889 48.9317 55.3234C49.0038 55.3659 49.0975 55.4515 49.1537 55.5845L47.3082 56.3706C47.5805 57.0157 48.1937 57.224 48.6253 57.283L48.9097 55.3033ZM49.1537 55.5845C49.1791 55.6448 49.1868 55.6914 49.1893 55.713C49.1917 55.7345 49.1898 55.7393 49.1912 55.7226C49.1926 55.7064 49.1964 55.6764 49.2065 55.6305C49.2165 55.585 49.2315 55.5284 49.2533 55.4597L47.3455 54.867C47.2205 55.2604 47.0852 55.8426 47.3082 56.3706L49.1537 55.5845ZM49.2649 55.4206L49.5714 54.2998L47.6404 53.7853L47.3339 54.9061L49.2649 55.4206ZM49.5689 54.3086C51.4667 47.6087 52.5867 43.1535 52.8938 41.0158L50.9122 40.7447C50.6278 42.7247 49.5497 47.0444 47.6428 53.7766L49.5689 54.3086ZM52.8938 41.0158C53.0773 39.7379 53.0689 38.5832 52.6712 37.7241L50.853 38.572C50.998 38.8852 51.0836 39.5519 50.9122 40.7447L52.8938 41.0158ZM52.6972 37.7858C52.3086 36.7719 51.4594 36.2253 50.4102 36.0818L50.1258 38.0615C50.5984 38.1261 50.7453 38.2972 50.8269 38.5103L52.6972 37.7858ZM50.4102 36.0818C49.2216 35.9193 48.0553 36.3905 46.9631 37.214L48.1632 38.8055C49.0288 38.1527 49.6657 37.9986 50.1258 38.0615L50.4102 36.0818ZM46.9784 37.2028C45.8812 37.9983 44.8987 39.0895 44.0186 40.4421L45.6954 41.5227C46.4749 40.3247 47.2965 39.4342 48.148 38.8167L46.9784 37.2028ZM44.0186 40.4421C43.1343 41.8012 42.4766 43.2479 42.049 44.7795L43.9771 45.3043C44.3486 43.9738 44.9202 42.7141 45.6954 41.5227L44.0186 40.4421ZM42.0472 44.786L39.786 53.1001L41.7177 53.6119L43.9789 45.2978L42.0472 44.786ZM39.7814 53.1176C39.7164 53.3749 39.6532 53.5472 39.6014 53.654C39.5447 53.7709 39.5309 53.7487 39.6008 53.696L40.8008 55.2875C41.0882 55.0708 41.275 54.7772 41.402 54.5155C41.5339 54.2437 41.6375 53.9301 41.7223 53.5943L39.7814 53.1176ZM39.6008 53.696C39.6242 53.6783 39.6099 53.6954 39.5196 53.7259C39.4335 53.7551 39.3062 53.7872 39.1279 53.8163L39.4388 55.7882C39.9074 55.7116 40.4164 55.5774 40.8008 55.2875L39.6008 53.696ZM39.2285 53.8051C38.9055 53.8249 38.6587 53.8376 38.4842 53.8439C38.3965 53.8471 38.3334 53.8484 38.2913 53.8484C38.232 53.8485 38.2528 53.8458 38.3044 53.8529L38.02 55.8326C38.1721 55.8533 38.3875 55.8464 38.5435 55.8408C38.7427 55.8336 39.0088 55.8196 39.3382 55.7995L39.2285 53.8051ZM38.3044 53.8529C38.2456 53.8448 38.2676 53.8384 38.3264 53.873C38.3986 53.9154 38.4923 54.0011 38.5484 54.134L36.7029 54.9202C36.9753 55.5652 37.5884 55.7735 38.02 55.8326L38.3044 53.8529ZM38.5484 54.134C38.5739 54.1943 38.5816 54.2409 38.584 54.2626C38.5864 54.284 38.5845 54.2889 38.5859 54.2722C38.5873 54.2559 38.5912 54.2259 38.6012 54.1801C38.6112 54.1346 38.6262 54.078 38.648 54.0093L36.7402 53.4165C36.6152 53.8099 36.48 54.3922 36.7029 54.9202L38.5484 54.134ZM68.6717 53.638L69.3526 52.9012L69.3116 52.8635L69.2667 52.8307L68.6717 53.638ZM68.895 55.1219L68.1053 54.5131L68.1019 54.5175L68.895 55.1219ZM65.863 57.6624L65.4317 56.7636L65.4253 56.7667L65.4189 56.7699L65.863 57.6624ZM61.9082 58.1873L61.7501 59.1748L61.7581 59.176L61.7661 59.1771L61.9082 58.1873ZM57.7926 55.4443L56.8893 55.8807L56.8949 55.8922L56.9007 55.9037L57.7926 55.4443ZM57.1169 49.6838L56.126 49.5483L56.1242 49.562L57.1169 49.6838ZM59.1326 42.741L58.2279 42.3195L58.2279 42.3195L59.1326 42.741ZM62.8727 37.972L63.463 38.7749L63.463 38.7749L62.8727 37.972ZM71.5419 38.7216L70.664 39.2071L70.6677 39.2138L70.6715 39.2205L71.5419 38.7216ZM68.4923 47.4608L68.9566 48.3429L68.9661 48.3378L68.4923 47.4608ZM60.0866 48.9272L60.1368 47.9291L59.2254 47.8893L59.0958 48.7917L60.0866 48.9272ZM60.2193 53.7415L59.2872 54.1116L59.2872 54.1116L60.2193 53.7415ZM64.7163 55.1801L64.2274 54.3115L64.2146 54.3188L64.2019 54.3265L64.7163 55.1801ZM66.5995 53.5483L67.3509 54.2034L67.3707 54.1808L67.3892 54.1571L66.5995 53.5483ZM68.1013 53.2208L68.6962 52.4135L68.684 52.4046L68.6715 52.3961L68.1013 53.2208ZM63.4889 41.1083L64.255 41.7464L64.2613 41.7388L63.4889 41.1083ZM60.829 46.122L59.8796 45.8116L59.4592 47.0706L60.7849 47.1204L60.829 46.122ZM67.9909 54.3747C68.0589 54.4373 68.1088 54.4898 68.1444 54.532C68.1802 54.5745 68.1967 54.6009 68.2023 54.6107C68.2147 54.6327 68.1611 54.5485 68.1832 54.3947L70.1647 54.6657C70.2781 53.8762 69.747 53.264 69.3526 52.9012L67.9909 54.3747ZM68.1832 54.3947C68.1877 54.3633 68.1924 54.4009 68.1053 54.5131L69.6847 55.7306C69.9149 55.434 70.1056 55.0773 70.1647 54.6657L68.1832 54.3947ZM68.1019 54.5175C67.3104 55.5487 66.4188 56.2868 65.4317 56.7636L66.2943 58.5611C67.5999 57.9304 68.7297 56.9749 69.6881 55.7262L68.1019 54.5175ZM65.4189 56.7699C64.5245 57.2177 63.4196 57.3847 62.0504 57.1975L61.7661 59.1771C63.4406 59.4062 64.9721 59.2232 66.3071 58.5548L65.4189 56.7699ZM62.0664 57.1998C60.3661 56.9392 59.2983 56.1836 58.6844 54.985L56.9007 55.9037C57.8521 57.7613 59.5281 58.8343 61.7501 59.1748L62.0664 57.1998ZM58.6958 55.008C58.0559 53.6744 57.8303 51.9613 58.1095 49.8055L56.1242 49.562C55.8116 51.9761 56.0365 54.1034 56.8893 55.8807L58.6958 55.008ZM58.1076 49.8193C58.4639 47.3392 59.1103 45.1233 60.0373 43.1626L58.2279 42.3195C57.2044 44.4845 56.507 46.897 56.1261 49.5483L58.1076 49.8193ZM60.0373 43.1626C60.9561 41.219 62.1055 39.7733 63.463 38.7749L62.2823 37.169C60.6034 38.4038 59.2595 40.1374 58.2279 42.3195L60.0373 43.1626ZM63.463 38.7749C64.7611 37.8202 66.222 37.4531 67.9087 37.6838L68.1931 35.7041C66.0118 35.4057 64.0205 35.8906 62.2823 37.169L63.463 38.7749ZM67.9087 37.6838C69.4267 37.8914 70.2493 38.4538 70.664 39.2071L72.4199 38.2361C71.604 36.7542 70.0992 35.9648 68.1931 35.7041L67.9087 37.6838ZM70.6715 39.2205C71.1766 40.1054 71.3577 41.073 71.2011 42.1631L73.1827 42.4341C73.3992 40.9269 73.147 39.5099 72.4124 38.2228L70.6715 39.2205ZM71.2011 42.1631C70.9214 44.1104 69.8947 45.5655 68.0186 46.5838L68.9661 48.3378C71.3675 47.0344 72.8072 45.048 73.1827 42.4341L71.2011 42.1631ZM68.028 46.5787C66.1071 47.5951 63.5022 48.0761 60.1368 47.9291L60.0363 49.9254C63.6102 50.0815 66.6091 49.5849 68.9566 48.3429L68.028 46.5787ZM59.0958 48.7917L58.9729 49.647L60.9545 49.918L61.0773 49.0627L59.0958 48.7917ZM58.9729 49.647C58.7272 51.3573 58.7986 52.8685 59.2872 54.1116L61.1514 53.3714C60.8351 52.5666 60.736 51.4385 60.9545 49.918L58.9729 49.647ZM59.2872 54.1116C59.828 55.4876 60.9141 56.2992 62.3929 56.5015L62.6773 54.5218C61.8733 54.4118 61.4155 54.0434 61.1514 53.3714L59.2872 54.1116ZM62.3929 56.5015C63.427 56.6429 64.4067 56.532 65.2308 56.0338L64.2019 54.3265C63.8931 54.5131 63.4187 54.6232 62.6773 54.5218L62.3929 56.5015ZM65.2052 56.0487C65.936 55.6357 66.6495 55.0036 67.3509 54.2034L65.848 52.8932C65.2349 53.5927 64.6929 54.0485 64.2274 54.3115L65.2052 56.0487ZM67.3892 54.1571C67.4415 54.0896 67.4849 54.0431 67.5181 54.0123C67.5512 53.9813 67.5695 53.9704 67.5714 53.9692C67.5724 53.9687 67.5556 53.9784 67.5223 53.9857C67.4876 53.9934 67.448 53.9954 67.4089 53.9901L67.6933 52.0104C66.8388 51.8935 66.2051 52.4304 65.8098 52.9396L67.3892 54.1571ZM67.4089 53.9901C67.4279 53.9927 67.4669 54.0016 67.531 54.0455L68.6715 52.3961C68.3825 52.1979 68.0547 52.0598 67.6933 52.0104L67.4089 53.9901ZM67.5063 54.0281L68.0768 54.4452L69.2667 52.8307L68.6962 52.4135L67.5063 54.0281ZM67.5594 38.4273C65.6443 38.1653 64.0034 38.9112 62.7165 40.4779L64.2613 41.7388C65.1685 40.6343 66.1465 40.2526 67.275 40.4069L67.5594 38.4273ZM62.7228 40.4704C61.5308 41.8931 60.5902 43.684 59.8796 45.8116L61.7783 46.4324C62.4294 44.483 63.262 42.9315 64.255 41.7463L62.7228 40.4704ZM60.7849 47.1204C63.4521 47.2206 65.6413 46.9486 67.2549 46.2031C68.9326 45.4279 69.9801 44.1367 70.2339 42.37L68.2523 42.0989C68.1057 43.1196 67.5506 43.87 66.4237 44.3907C65.2325 44.9411 63.4149 45.2191 60.8731 45.1237L60.7849 47.1204ZM70.2339 42.37C70.3718 41.4097 70.2963 40.4765 69.809 39.7246C69.3022 38.9426 68.4808 38.5533 67.5594 38.4273L67.275 40.4069C67.8121 40.4804 68.0242 40.6604 68.1261 40.8175C68.2473 41.0047 68.3556 41.3805 68.2523 42.0989L70.2339 42.37ZM88.7911 58.0852L87.8878 58.5215L87.8948 58.536L87.9022 58.5503L88.7911 58.0852ZM88.2393 60.2383L88.7397 61.1004L88.7472 61.0959L88.2393 60.2383ZM86.4383 60.9609L86.1787 59.9977L86.17 60.0001L86.1614 60.0026L86.4383 60.9609ZM82.9127 59.8489L81.9575 60.1537L81.9655 60.179L81.9748 60.2039L82.9127 59.8489ZM82.7445 57.3067L83.7353 57.4422L84.2267 54.0213L81.9827 56.6636L82.7445 57.3067ZM79.8825 59.6767L79.4438 58.7815L79.4361 58.7853L79.4286 58.7892L79.8825 59.6767ZM76.7091 60.1631L76.5463 61.1499L76.5566 61.1516L76.5669 61.153L76.7091 60.1631ZM73.368 57.4292L72.4477 57.8281L72.4508 57.8353L72.454 57.8425L73.368 57.4292ZM72.9032 51.213L71.9143 51.0643L71.9124 51.0775L72.9032 51.213ZM74.905 44.7044L74.01 44.2628L74.006 44.2712L74.905 44.7044ZM78.5703 40.1189L79.1601 40.9222L79.1604 40.922L78.5703 40.1189ZM86.9949 40.8836L86.2566 41.5628L87.6851 43.1116L87.9857 41.0191L86.9949 40.8836ZM87.0154 40.741L86.0437 40.5077L86.0317 40.5562L86.0246 40.6055L87.0154 40.741ZM87.4714 39.5922L86.8013 38.8545L86.7939 38.8612L86.7866 38.8681L87.4714 39.5922ZM88.3889 39.2817L88.3662 38.2831L88.3354 38.284L88.3046 38.2868L88.3889 39.2817ZM90.2368 39.5829L91.1595 39.1898L91.1595 39.1898L90.2368 39.5829ZM90.1683 40.3971L89.2144 40.1007L89.212 40.1081L89.2098 40.1155L90.1683 40.3971ZM85.1283 58.9408L84.1375 58.8053L83.8864 60.5535L85.5161 59.8593L85.1283 58.9408ZM87.0451 57.7495L86.4451 56.9538L86.4451 56.9538L87.0451 57.7495ZM84.6862 49.1911L83.7263 48.9142L83.724 48.922L83.7219 48.9297L84.6862 49.1911ZM86.2866 43.4512L87.2642 43.6595L87.367 43.1925L87.068 42.8218L86.2866 43.4512ZM84.915 42.1978L84.3233 43.0074L84.3546 43.0301L84.3876 43.0503L84.915 42.1978ZM79.5196 42.9617L80.2415 43.6491L80.2415 43.6491L79.5196 42.9617ZM76.9962 47.0252L76.0628 46.6705L76.0595 46.6791L76.0563 46.6877L76.9962 47.0252ZM75.7703 51.5083L74.783 51.3503L74.7811 51.3615L74.7795 51.3728L75.7703 51.5083ZM81.6518 55.4616L80.8858 54.8234L80.8825 54.8275L81.6518 55.4616ZM87.8477 58.2388C87.7015 58.2188 87.6469 58.1471 87.6786 58.1802C87.7136 58.2167 87.7888 58.3152 87.8878 58.5215L89.6943 57.6489C89.5446 57.3368 89.3618 57.0366 89.1297 56.7944C88.8944 56.5488 88.5636 56.3181 88.1321 56.2591L87.8477 58.2388ZM87.9022 58.5503C88.0996 58.9297 88.113 59.1483 88.0984 59.2501L90.08 59.5211C90.1745 58.8627 89.9892 58.2144 89.68 57.6202L87.9022 58.5503ZM88.0984 59.2501C88.1117 59.1575 88.1425 59.0979 88.1557 59.0756C88.1683 59.0545 88.1698 59.0588 88.1421 59.0865C88.083 59.1458 87.9582 59.2459 87.7314 59.3807L88.7472 61.0959C89.0506 60.9156 89.3325 60.7161 89.5567 60.4911C89.771 60.2761 90.018 59.9524 90.08 59.5211L88.0984 59.2501ZM87.739 59.3762C87.3384 59.6096 86.8237 59.8206 86.1787 59.9977L86.6979 61.924C87.4664 61.7131 88.1524 61.4424 88.7396 61.1003L87.739 59.3762ZM86.1614 60.0026C85.6015 60.1671 85.1065 60.2054 84.6643 60.145L84.3799 62.1246C85.1425 62.2289 85.925 62.1513 86.7152 61.9191L86.1614 60.0026ZM84.6643 60.145C84.4171 60.1112 84.2607 60.0358 84.1539 59.9505C84.047 59.865 83.9385 59.7286 83.8506 59.4939L81.9748 60.2039C82.1673 60.718 82.4672 61.1704 82.8967 61.5136C83.3264 61.8569 83.8346 62.0501 84.3799 62.1246L84.6643 60.145ZM83.8679 59.5441C83.6742 58.9283 83.6216 58.2333 83.7353 57.4422L81.7537 57.1712C81.6034 58.2172 81.663 59.2171 81.9575 60.1537L83.8679 59.5441ZM81.9827 56.6636C81.1104 57.6907 80.2607 58.3787 79.4438 58.7815L80.3211 60.5718C81.4526 60.0139 82.5109 59.1218 83.5062 57.9498L81.9827 56.6636ZM79.4286 58.7892C78.6917 59.1682 77.8459 59.3093 76.8513 59.1733L76.5669 61.153C77.9184 61.3378 79.1882 61.1547 80.3363 60.5641L79.4286 58.7892ZM76.8719 59.1763C75.7349 58.9966 74.8763 58.3406 74.2819 57.016L72.454 57.8425C73.28 59.6834 74.6487 60.85 76.5463 61.1499L76.8719 59.1763ZM74.2882 57.0303C73.7097 55.6841 73.5393 53.8177 73.894 51.3486L71.9124 51.0775C71.53 53.7397 71.6695 56.0174 72.4477 57.8281L74.2882 57.0303ZM73.892 51.3617C74.251 49.0796 74.8906 47.0072 75.8041 45.1377L74.006 44.2712C72.9964 46.3373 72.3014 48.604 71.9144 51.0644L73.892 51.3617ZM75.8 45.146C76.7435 43.2594 77.8713 41.8689 79.1601 40.9222L77.9804 39.3156C76.378 40.4926 75.0622 42.1591 74.0101 44.2629L75.8 45.146ZM79.1604 40.922C80.4325 39.987 81.8145 39.6341 83.3617 39.8457L83.6461 37.866C81.579 37.5833 79.6719 38.0724 77.9802 39.3158L79.1604 40.922ZM83.3617 39.8457C84.3089 39.9752 85.2754 40.4991 86.2566 41.5628L87.7333 40.2043C86.5327 38.9026 85.1718 38.0747 83.6461 37.866L83.3617 39.8457ZM87.9857 41.0191L88.0062 40.8765L86.0246 40.6055L86.0042 40.7481L87.9857 41.0191ZM87.9871 40.9744C88.0588 40.6844 88.1228 40.4807 88.1755 40.348C88.2016 40.2823 88.2192 40.2483 88.2259 40.2368C88.2353 40.2204 88.2157 40.2603 88.1562 40.3164L86.7866 38.8681C86.5426 39.0982 86.4014 39.4048 86.315 39.6224C86.2157 39.8727 86.1265 40.1728 86.0437 40.5077L87.9871 40.9744ZM88.1415 40.33C88.1068 40.3614 88.0979 40.3539 88.156 40.3343C88.2141 40.3146 88.3151 40.291 88.4731 40.2767L88.3046 38.2868C87.8001 38.3326 87.2292 38.4668 86.8013 38.8545L88.1415 40.33ZM88.4115 40.2804C88.7997 40.2691 89.0949 40.2618 89.2993 40.2584C89.402 40.2567 89.4772 40.2561 89.528 40.2563C89.5537 40.2564 89.5682 40.2567 89.5744 40.2568C89.5931 40.2574 89.5598 40.2574 89.5105 40.2506L89.7949 38.2709C89.699 38.2578 89.5862 38.2583 89.548 38.2581C89.4776 38.2579 89.387 38.2588 89.279 38.2606C89.0621 38.2642 88.7571 38.2717 88.3662 38.2831L88.4115 40.2804ZM89.5105 40.2506C89.596 40.2623 89.5938 40.2743 89.5481 40.249C89.4897 40.2169 89.3803 40.1329 89.314 39.976L91.1595 39.1898C90.8748 38.5154 90.2067 38.3273 89.7949 38.2709L89.5105 40.2506ZM89.314 39.976C89.2886 39.9156 89.2809 39.8691 89.2784 39.8474C89.276 39.826 89.2779 39.8211 89.2765 39.8378C89.2751 39.8541 89.2713 39.884 89.2612 39.9299C89.2512 39.9754 89.2362 40.032 89.2144 40.1007L91.1222 40.6935C91.2472 40.3001 91.3825 39.7178 91.1595 39.1898L89.314 39.976ZM89.2098 40.1155C86.1874 50.1641 84.4784 56.4321 84.1375 58.8053L86.1191 59.0763C86.4334 56.8882 88.0844 50.7938 91.1268 40.6787L89.2098 40.1155ZM85.5161 59.8593C86.1424 59.5925 86.857 59.1396 87.6451 58.5453L86.4451 56.9538C85.7105 57.5077 85.1472 57.849 84.7405 58.0223L85.5161 59.8593ZM87.6451 58.5453C87.8619 58.3818 88.01 58.2871 88.0996 58.2396C88.1442 58.216 88.1518 58.2162 88.1299 58.2229C88.1175 58.2267 88.0881 58.2349 88.0448 58.2405C88.0021 58.246 87.9335 58.2505 87.8477 58.2388L88.1321 56.2591C87.8914 56.2262 87.6837 56.2732 87.5534 56.3132C87.4131 56.3562 87.2829 56.4163 87.17 56.4761C86.9447 56.5954 86.6996 56.7619 86.4451 56.9538L87.6451 58.5453ZM85.6461 49.4681C86.5238 46.4981 87.0688 44.5478 87.2642 43.6595L85.3091 43.243C85.132 44.0477 84.61 45.924 83.7263 48.9142L85.6461 49.4681ZM87.068 42.8218C86.5752 42.2106 86.0358 41.7086 85.4424 41.3453L84.3876 43.0503C84.745 43.2692 85.12 43.6029 85.5053 44.0807L87.068 42.8218ZM85.5067 41.3882C84.9134 40.958 84.2153 40.7053 83.4473 40.6002L83.1629 42.5799C83.6631 42.6483 84.0382 42.8007 84.3233 43.0074L85.5067 41.3882ZM83.4473 40.6002C81.6536 40.3549 80.0747 40.939 78.7977 42.2744L80.2415 43.6491C81.0949 42.7566 82.0397 42.4263 83.1629 42.5799L83.4473 40.6002ZM78.7977 42.2744C77.631 43.4944 76.7224 44.9656 76.0628 46.6705L77.9297 47.3798C78.5042 45.8945 79.2779 44.6568 80.2415 43.6491L78.7977 42.2744ZM76.0563 46.6877C75.4539 48.3338 75.027 49.8888 74.783 51.3503L76.7576 51.6662C76.9775 50.349 77.3679 48.9153 77.9361 47.3626L76.0563 46.6877ZM74.7795 51.3728C74.506 53.2769 74.5145 54.8854 74.9242 56.0981C75.1341 56.7196 75.4599 57.2682 75.935 57.6867C76.4153 58.1097 76.9961 58.3534 77.6354 58.4408L77.9198 56.4611C77.6238 56.4206 77.4195 56.3207 77.2649 56.1846C77.1051 56.0439 76.9462 55.8177 76.8215 55.4487C76.562 54.6805 76.5022 53.4456 76.7611 51.6438L74.7795 51.3728ZM77.6354 58.4408C79.4523 58.6893 81.0573 57.7399 82.421 56.0958L80.8825 54.8275C79.7439 56.2001 78.7661 56.5769 77.9198 56.4611L77.6354 58.4408ZM82.4177 56.0999C83.8251 54.4211 84.8901 52.1869 85.6505 49.4526L83.7219 48.9297C83.0113 51.4847 82.0533 53.4309 80.8859 54.8234L82.4177 56.0999ZM110.765 30.1337L110.867 31.1269L110.867 31.1269L110.765 30.1337ZM112.613 30.4349L111.69 30.828L111.71 30.8754L111.735 30.9204L112.613 30.4349ZM112.599 31.2081L113.559 31.4834L113.568 31.4546L113.574 31.4254L112.599 31.2081ZM107.887 47.4712L108.85 47.7369L108.85 47.7358L107.887 47.4712ZM105.632 56.0768L106.606 56.2985L106.607 56.2941L105.632 56.0768ZM103.956 63.3567L103.568 62.4382L103.52 62.4585L103.475 62.4835L103.956 63.3567ZM103.004 63.5657L103.027 64.5643L103.075 64.5629L103.122 64.557L103.004 63.5657ZM101.571 63.079L102.521 62.7575L102.521 62.7575L101.571 63.079ZM101.626 61.6816L102.609 61.864L102.614 61.8407L102.617 61.8171L101.626 61.6816ZM102.083 59.5156L103.053 59.7557L101.249 58.9685L102.083 59.5156ZM99.2751 62.1836L98.7989 61.3079L98.792 61.3117L98.7851 61.3156L99.2751 62.1836ZM95.8366 62.8276L95.6738 63.8144L95.6841 63.816L95.6944 63.8174L95.8366 62.8276ZM92.4955 60.0937L91.5753 60.4926L91.5784 60.4998L91.5816 60.507L92.4955 60.0937ZM92.0308 53.8775L91.0419 53.7288L91.04 53.742L92.0308 53.8775ZM94.0326 47.3689L94.9317 47.8022L94.9336 47.7982L94.0326 47.3689ZM97.6503 42.7769L98.2401 43.5802L98.2404 43.58L97.6503 42.7769ZM106.265 43.2285L105.62 43.996L106.81 44.9917L107.229 43.4909L106.265 43.2285ZM109.439 31.5995L110.407 31.8493L110.41 31.8379L109.439 31.5995ZM109.895 30.4508L109.225 29.713L109.185 29.749L109.15 29.789L109.895 30.4508ZM105.557 45.7961L106.522 46.0543L106.691 45.4405L106.206 45.0316L105.557 45.7961ZM104.009 44.7607L103.509 45.6295L103.542 45.6486L103.577 45.6651L104.009 44.7607ZM98.6472 45.6262L97.9253 44.9388L97.9253 44.9388L98.6472 45.6262ZM96.1238 49.6896L95.1904 49.335L95.187 49.3436L95.1839 49.3522L96.1238 49.6896ZM94.8979 54.1728L93.9106 54.0148L93.9087 54.026L93.9071 54.0372L94.8979 54.1728ZM101.004 57.9146L101.79 58.5278L101.79 58.5278L101.004 57.9146ZM103.929 51.7261L102.964 51.4679L102.961 51.4794L103.929 51.7261ZM110.867 31.1269C111.348 31.0745 111.696 31.0765 111.934 31.1091L112.219 29.1295C111.759 29.0667 111.233 29.0783 110.663 29.1406L110.867 31.1269ZM111.934 31.1091C111.993 31.1172 111.971 31.1236 111.912 31.089C111.84 31.0466 111.746 30.9609 111.69 30.828L113.536 30.0418C113.263 29.3968 112.65 29.1885 112.219 29.1295L111.934 31.1091ZM111.735 30.9204C111.691 30.8404 111.676 30.7755 111.67 30.7463C111.665 30.7165 111.667 30.7057 111.666 30.7213C111.666 30.7359 111.664 30.7655 111.658 30.8129C111.651 30.8598 111.64 30.9187 111.623 30.9909L113.574 31.4254C113.626 31.1996 113.664 30.9676 113.668 30.7447C113.672 30.5376 113.649 30.2373 113.491 29.9494L111.735 30.9204ZM111.639 30.9328C109.487 38.2613 107.914 43.6867 106.923 47.2066L108.85 47.7358C109.838 44.2272 111.408 38.8106 113.559 31.4834L111.639 30.9328ZM106.923 47.2055C105.936 50.6962 105.179 53.5824 104.656 55.8596L106.607 56.2941C107.12 54.0621 107.867 51.2112 108.85 47.7369L106.923 47.2055ZM104.657 55.8552C103.988 58.7102 103.539 60.9127 103.319 62.446L105.3 62.717C105.508 61.2728 105.94 59.139 106.606 56.2985L104.657 55.8552ZM103.319 62.446C103.307 62.5285 103.294 62.5906 103.283 62.6354C103.271 62.6812 103.262 62.6996 103.263 62.6986C103.263 62.6974 103.268 62.6886 103.276 62.6744C103.285 62.6602 103.3 62.6385 103.322 62.6128C103.369 62.56 103.448 62.4891 103.568 62.4382L104.344 64.2752C104.756 64.0994 104.973 63.7597 105.084 63.5172C105.199 63.2657 105.262 62.9853 105.3 62.717L103.319 62.446ZM103.475 62.4835C103.518 62.46 103.538 62.4555 103.516 62.4628C103.497 62.4687 103.462 62.4788 103.403 62.4915C103.286 62.5173 103.117 62.5456 102.886 62.5744L103.122 64.557C103.385 64.5241 103.622 64.4868 103.822 64.4428C103.999 64.4039 104.232 64.3427 104.436 64.2299L103.475 62.4835ZM102.982 62.567C102.792 62.5725 102.646 62.5748 102.54 62.5745C102.488 62.5743 102.449 62.5734 102.424 62.5724C102.394 62.5712 102.397 62.5702 102.42 62.5733L102.135 64.553C102.331 64.5798 102.669 64.5747 103.027 64.5643L102.982 62.567ZM102.42 62.5733C102.333 62.5615 102.34 62.5468 102.386 62.5783C102.41 62.5953 102.44 62.6214 102.467 62.6574C102.494 62.6935 102.511 62.7291 102.521 62.7575L100.621 63.4004C100.873 64.1529 101.529 64.4701 102.135 64.553L102.42 62.5733ZM102.521 62.7575C102.53 62.7854 102.51 62.7381 102.517 62.5595C102.524 62.3934 102.551 62.1647 102.609 61.864L100.643 61.4992C100.574 61.8594 100.529 62.194 100.517 62.4936C100.506 62.7808 100.522 63.1019 100.621 63.4005L102.521 62.7575ZM102.617 61.8171C102.692 61.296 102.835 60.612 103.053 59.7557L101.113 59.2754C100.886 60.1669 100.724 60.9269 100.636 61.5461L102.617 61.8171ZM101.249 58.9685C100.542 60.0364 99.7222 60.8036 98.7989 61.3079L99.7512 63.0593C101.003 62.3755 102.055 61.3639 102.917 60.0627L101.249 58.9685ZM98.7851 61.3156C97.9278 61.8016 97.0048 61.9781 95.9788 61.8378L95.6944 63.8174C97.1415 64.0153 98.5108 63.7625 99.7651 63.0516L98.7851 61.3156ZM95.9994 61.8408C94.8625 61.6611 94.0038 61.0051 93.4095 59.6804L91.5816 60.507C92.4075 62.3479 93.7762 63.5145 95.6738 63.8144L95.9994 61.8408ZM93.4158 59.6948C92.8372 58.3486 92.6668 56.4822 93.0215 54.013L91.04 53.742C90.6575 56.4042 90.797 58.6819 91.5753 60.4926L93.4158 59.6948ZM93.0196 54.0262C93.3785 51.744 94.0181 49.6717 94.9317 47.8022L93.1335 46.9357C92.1239 49.0017 91.429 51.2685 91.042 53.7288L93.0196 54.0262ZM94.9336 47.7982C95.8451 45.9118 96.9553 44.5239 98.2401 43.5802L97.0604 41.9736C95.4539 43.1536 94.1524 44.827 93.1316 46.9397L94.9336 47.7982ZM98.2404 43.58C99.5125 42.645 100.894 42.292 102.442 42.5036L102.726 40.524C100.659 40.2413 98.7519 40.7303 97.0602 41.9737L98.2404 43.58ZM102.442 42.5036C103.529 42.6524 104.587 43.1321 105.62 43.996L106.911 42.4609C105.635 41.3941 104.238 40.7308 102.726 40.524L102.442 42.5036ZM107.229 43.4909C108.429 39.1945 109.488 35.3139 110.407 31.8493L108.472 31.3498C107.556 34.8043 106.499 38.6762 105.301 42.9661L107.229 43.4909ZM110.41 31.8379C110.479 31.5654 110.542 31.3668 110.596 31.2303C110.657 31.0765 110.681 31.0672 110.641 31.1126L109.15 29.789C108.955 30.007 108.826 30.2755 108.735 30.5047C108.638 30.7511 108.55 31.0405 108.469 31.3612L110.41 31.8379ZM110.565 31.1885C110.542 31.2098 110.54 31.2016 110.59 31.1834C110.641 31.1649 110.729 31.142 110.867 31.1269L110.663 29.1406C110.172 29.1941 109.637 29.3401 109.225 29.713L110.565 31.1885ZM106.206 45.0316C105.613 44.5308 105.024 44.1311 104.44 43.8564L103.577 45.6651C103.962 45.8459 104.405 46.1364 104.908 46.5606L106.206 45.0316ZM104.509 43.892C103.932 43.5641 103.281 43.3613 102.575 43.2647L102.29 45.2444C102.789 45.3125 103.188 45.4472 103.509 45.6295L104.509 43.892ZM102.575 43.2647C100.781 43.0194 99.2023 43.6034 97.9253 44.9388L99.3691 46.3135C100.222 45.4211 101.167 45.0908 102.29 45.2444L102.575 43.2647ZM97.9253 44.9388C96.7586 46.1589 95.8499 47.6301 95.1904 49.335L97.0572 50.0442C97.6318 48.559 98.4054 47.3213 99.3691 46.3135L97.9253 44.9388ZM95.1839 49.3522C94.5814 50.9983 94.1545 52.5533 93.9106 54.0148L95.8851 54.3307C96.105 53.0135 96.4954 51.5797 97.0637 50.0271L95.1839 49.3522ZM93.9071 54.0372C93.6328 55.9467 93.6566 57.5678 94.1082 58.7944C94.3398 59.4236 94.6923 59.9708 95.1921 60.3851C95.6944 60.8014 96.2948 61.0413 96.9532 61.1313L97.2376 59.1516C96.8972 59.1051 96.657 58.9938 96.4769 58.8444C96.2942 58.693 96.1223 58.46 95.9877 58.0944C95.7068 57.3314 95.6305 56.1048 95.8886 54.3083L93.9071 54.0372ZM96.9532 61.1313C98.7859 61.382 100.405 60.2915 101.79 58.5278L100.217 57.3014C98.9915 58.8624 98.0047 59.2565 97.2376 59.1516L96.9532 61.1313ZM101.79 58.5278C103.196 56.7368 104.225 54.5422 104.898 51.9728L102.961 51.4794C102.344 53.8365 101.422 55.7676 100.217 57.3014L101.79 58.5278ZM104.895 51.9843L106.522 46.0543L104.592 45.5379L102.964 51.4679L104.895 51.9843ZM41.4151 95.6591L42.3183 95.2227L42.3075 95.2001L42.2955 95.1781L41.4151 95.6591ZM36.6396 94.1339L37.1203 95.0071L37.1284 95.0025L36.6396 94.1339ZM36.0255 98.0709L35.1475 98.5564L35.1611 98.581L35.176 98.6048L36.0255 98.0709ZM38.2728 100.655L38.9855 99.9491L38.9803 99.9439L38.975 99.9387L38.2728 100.655ZM39.4205 111.906L39.9644 112.741L39.4205 111.906ZM31.1588 111.358L30.5111 112.124L30.5111 112.124L31.1588 111.358ZM28.7963 108.225L27.8465 108.546L27.8631 108.596L27.8848 108.643L28.7963 108.225ZM29.7893 106.713L30.1981 107.623L30.2348 107.606L30.27 107.587L29.7893 106.713ZM31.345 107.023L30.4328 107.44L30.4372 107.45L30.4418 107.459L31.345 107.023ZM32.886 109.123L32.2104 109.865L32.218 109.872L32.2257 109.878L32.886 109.123ZM37.7642 109.597L37.2049 108.772L37.1948 108.779L37.1849 108.786L37.7642 109.597ZM38.5279 105.292L37.6809 105.83L37.6953 105.853L37.7109 105.875L38.5279 105.292ZM36.4165 102.775L35.6865 103.463L35.694 103.471L35.7017 103.479L36.4165 102.775ZM35.5746 101.885L36.3045 101.197L36.3001 101.192L35.5746 101.885ZM33.2528 98.806L32.3532 99.2496L32.3569 99.2572L32.3607 99.2648L33.2528 98.806ZM34.9627 91.9667L35.4975 92.8078L35.4975 92.8078L34.9627 91.9667ZM44.147 94.87L45.0968 94.5485L45.0918 94.5337L45.0864 94.5191L44.147 94.87ZM43.9154 95.8072L44.4233 96.6648L44.4233 96.6648L43.9154 95.8072ZM42.9843 96.2128L43.2341 97.1786L43.2822 97.1659L43.3288 97.1486L42.9843 96.2128ZM42.2955 95.1781C41.5594 93.8244 40.3921 93.008 38.8679 92.7996L38.5835 94.7793C39.4688 94.9003 40.0944 95.3304 40.5347 96.14L42.2955 95.1781ZM38.8679 92.7996C37.8957 92.6666 36.9716 92.8013 36.1507 93.2653L37.1284 95.0025C37.5038 94.7904 37.9704 94.6954 38.5835 94.7793L38.8679 92.7996ZM36.1588 93.2607C35.2307 93.774 34.7724 94.6982 34.6217 95.7473L36.6032 96.0183C36.6982 95.3569 36.9247 95.1152 37.1203 95.0071L36.1588 93.2607ZM34.6217 95.7473C34.4803 96.731 34.6636 97.6774 35.1475 98.5564L36.9034 97.5854C36.6182 97.0674 36.5261 96.555 36.6032 96.0183L34.6217 95.7473ZM35.176 98.6048C35.6606 99.3777 36.4777 100.305 37.5706 101.372L38.975 99.9387C37.9131 98.9022 37.232 98.1065 36.8749 97.537L35.176 98.6048ZM37.5601 101.361C38.9483 102.758 39.8866 103.909 40.4225 104.822L42.1518 103.804C41.4932 102.682 40.4219 101.394 38.9855 99.9491L37.5601 101.361ZM40.4225 104.822C40.8908 105.621 41.0692 106.562 40.9056 107.701L42.8871 107.972C43.1058 106.45 42.878 105.043 42.1518 103.804L40.4225 104.822ZM40.9056 107.701C40.6826 109.253 39.9986 110.339 38.8766 111.071L39.9644 112.741C41.6249 111.658 42.5914 110.031 42.8871 107.972L40.9056 107.701ZM38.8766 111.071C37.7096 111.833 36.3591 112.125 34.7651 111.907L34.4808 113.887C36.5011 114.163 38.349 113.796 39.9644 112.741L38.8766 111.071ZM34.7651 111.907C33.6534 111.755 32.6735 111.321 31.8064 110.592L30.5111 112.124C31.6631 113.092 32.9927 113.684 34.4808 113.887L34.7651 111.907ZM31.8064 110.592C30.9133 109.841 30.2142 108.917 29.7078 107.806L27.8848 108.643C28.5092 110.013 29.3851 111.177 30.5111 112.124L31.8064 110.592ZM29.7461 107.903C29.7294 107.853 29.7237 107.822 29.7218 107.807C29.72 107.793 29.7224 107.798 29.7195 107.818L27.7379 107.547C27.6869 107.902 27.7457 108.244 27.8465 108.546L29.7461 107.903ZM29.7195 107.818C29.7014 107.944 29.6388 107.974 29.7047 107.914C29.774 107.85 29.9225 107.748 30.1981 107.623L29.3804 105.804C28.9991 105.977 28.6423 106.184 28.3581 106.444C28.0704 106.707 27.8061 107.072 27.7379 107.547L29.7195 107.818ZM30.27 107.587C30.4445 107.49 30.5663 107.439 30.6422 107.415C30.7263 107.389 30.7027 107.412 30.6121 107.399L30.8965 105.419C30.323 105.341 29.7446 105.599 29.3086 105.84L30.27 107.587ZM30.6121 107.399C30.5346 107.389 30.4698 107.364 30.4214 107.337C30.3752 107.311 30.3506 107.286 30.3445 107.28C30.3387 107.274 30.3463 107.281 30.364 107.309C30.3814 107.336 30.405 107.379 30.4328 107.44L32.2573 106.606C32.0621 106.176 31.6663 105.525 30.8965 105.419L30.6121 107.399ZM30.4418 107.459C30.8906 108.395 31.4786 109.201 32.2104 109.865L33.5616 108.382C33.0349 107.904 32.5956 107.31 32.2483 106.587L30.4418 107.459ZM32.2257 109.878C33.0239 110.573 33.9442 111.004 34.9717 111.144L35.2561 109.165C34.635 109.08 34.07 108.824 33.5463 108.368L32.2257 109.878ZM34.9717 111.144C36.219 111.315 37.3738 111.101 38.3435 110.408L37.1849 108.786C36.7135 109.123 36.1014 109.28 35.2561 109.165L34.9717 111.144ZM38.3234 110.421C39.2973 109.76 39.9024 108.833 40.0676 107.683L38.0861 107.412C38.0055 107.972 37.7355 108.411 37.2049 108.772L38.3234 110.421ZM40.0676 107.683C40.2226 106.604 39.9761 105.596 39.345 104.71L37.7109 105.875C38.0483 106.349 38.1677 106.844 38.0861 107.412L40.0676 107.683ZM39.375 104.755C38.8728 103.962 38.1138 103.065 37.1313 102.071L35.7017 103.479C36.6385 104.427 37.2871 105.209 37.6809 105.83L39.375 104.755ZM37.1465 102.087L36.3045 101.197L34.8446 102.573L35.6865 103.463L37.1465 102.087ZM36.3001 101.192C35.2704 100.117 34.5654 99.1692 34.1449 98.3471L32.3607 99.2648C32.8994 100.318 33.7421 101.423 34.849 102.578L36.3001 101.192ZM34.1525 98.3623C33.7804 97.6029 33.6453 96.6927 33.8042 95.587L31.8226 95.316C31.6174 96.7443 31.7753 98.0704 32.3532 99.2496L34.1525 98.3623ZM33.8042 95.587C33.99 94.2932 34.5611 93.4046 35.4975 92.8078L34.4279 91.1257C32.9445 92.0711 32.0827 93.5057 31.8226 95.316L33.8042 95.587ZM35.4975 92.8078C36.4779 92.1829 37.6442 91.9378 39.0608 92.1316L39.3452 90.1519C37.5279 89.9034 35.8674 90.2083 34.4279 91.1257L35.4975 92.8078ZM39.0608 92.1316C40.1814 92.2848 41.0496 92.6306 41.7109 93.1293C42.3674 93.6244 42.8704 94.3078 43.2076 95.2209L45.0864 94.5191C44.6323 93.2892 43.9157 92.2798 42.9242 91.5322C41.9375 90.7881 40.7294 90.3412 39.3452 90.1519L39.0608 92.1316ZM43.1972 95.1915C43.2072 95.2214 43.2142 95.2457 43.2189 95.2645C43.2237 95.2834 43.2258 95.2952 43.2266 95.3006C43.2274 95.306 43.2266 95.3026 43.2263 95.2915C43.2261 95.2805 43.2264 95.2589 43.2306 95.2291L45.2122 95.5001C45.2626 95.1492 45.1846 94.8114 45.0968 94.5485L43.1972 95.1915ZM43.2306 95.2291C43.2374 95.182 43.2579 95.1175 43.3018 95.0539C43.3446 94.9922 43.3892 94.9605 43.4075 94.9496L44.4233 96.6648C44.8418 96.4161 45.1385 96.0134 45.2122 95.5001L43.2306 95.2291ZM43.4075 94.9496C43.3159 95.004 43.081 95.1127 42.6397 95.277L43.3288 97.1486C43.7756 96.9822 44.1614 96.8204 44.4233 96.6648L43.4075 94.9496ZM42.7345 95.247C42.5534 95.2947 42.4202 95.3225 42.3281 95.3364C42.2827 95.3433 42.2553 95.3455 42.2429 95.3461C42.2282 95.3468 42.2453 95.3447 42.2839 95.3499L41.9995 97.3296C42.2194 97.3597 42.4402 97.3384 42.6143 97.3121C42.803 97.2837 43.0119 97.2372 43.2341 97.1786L42.7345 95.247ZM42.2839 95.3499C42.3249 95.3555 42.362 95.368 42.3916 95.3829C42.4056 95.39 42.4161 95.3967 42.4232 95.4017C42.4303 95.4067 42.4336 95.4098 42.4335 95.4098C42.433 95.4093 42.4205 95.3973 42.3989 95.366C42.3774 95.3346 42.3498 95.2883 42.3183 95.2227L40.5118 96.0954C40.7656 96.6243 41.2199 97.223 41.9995 97.3296L42.2839 95.3499ZM61.0837 96.2659L60.1853 96.7123L60.1905 96.7225L61.0837 96.2659ZM59.6147 108.855L60.5228 109.269L60.5245 109.265L59.6147 108.855ZM55.8541 113.766L55.2541 112.97L55.2445 112.978L55.8541 113.766ZM47.2729 113.416L47.9363 112.664L46.7364 111.612L46.3084 113.156L47.2729 113.416ZM46.3671 116.684L47.329 116.954L47.3317 116.944L46.3671 116.684ZM44.9573 121.771L43.9876 121.53L43.9869 121.533L44.9573 121.771ZM44.4538 122.914L43.7837 122.176L43.744 122.212L43.7083 122.252L44.4538 122.914ZM43.6315 123.237L43.7338 124.23L43.7338 124.23L43.6315 123.237ZM41.7835 122.936L42.7063 122.543L42.6863 122.496L42.6615 122.45L41.7835 122.936ZM41.7976 122.163L42.7732 122.38L42.7825 122.339L42.7884 122.298L41.7976 122.163ZM43.5342 116.151L42.5758 115.869L42.5731 115.878L43.5342 116.151ZM47.1366 103.563L46.1714 103.305L46.1695 103.312L47.1366 103.563ZM49.5487 93.1865L48.8786 92.4487L48.8711 92.4554L48.8638 92.4623L49.5487 93.1865ZM50.5612 92.889L50.5386 91.8903L50.5225 91.8908L50.5064 91.8918L50.5612 92.889ZM52.3616 93.1836L51.4388 93.5767L51.4588 93.6241L51.4836 93.6691L52.3616 93.1836ZM52.3407 94.0043L51.3637 93.7933L51.3625 93.7987L52.3407 94.0043ZM51.7682 96.639L50.7901 96.4333L49.9762 100.179L52.5178 97.2963L51.7682 96.639ZM54.5759 94.3101L55.0229 95.201L55.0343 95.1952L55.0456 95.1892L54.5759 94.3101ZM54.9116 110.876L54.1771 110.202L54.1715 110.208L54.1661 110.214L54.9116 110.876ZM57.5372 106.439L56.5969 106.102L56.5969 106.102L57.5372 106.439ZM58.6365 98.1113L57.6915 98.4466L57.6915 98.4466L58.6365 98.1113ZM54.0913 97.6834L54.7326 98.4463L54.7388 98.4411L54.745 98.4357L54.0913 97.6834ZM51.3442 100.941L50.4965 100.415L50.4915 100.423L50.4867 100.431L51.3442 100.941ZM49.609 104.919L50.5742 105.177L50.576 105.17L49.609 104.919ZM47.9812 110.849L47.016 110.59L46.8475 111.204L47.3319 111.613L47.9812 110.849ZM49.4753 111.925L48.9753 112.794L49.009 112.813L49.0441 112.829L49.4753 111.925ZM57.5595 94.8069C58.7805 94.9739 59.6277 95.5828 60.1853 96.7123L61.9821 95.8196C61.1374 94.1089 59.7299 93.0852 57.8438 92.8272L57.5595 94.8069ZM60.1905 96.7225C60.7702 97.863 60.9735 99.4525 60.6669 101.586L62.6485 101.857C62.9881 99.4934 62.8087 97.4457 61.9769 95.8093L60.1905 96.7225ZM60.6669 101.586C60.306 104.099 59.6497 106.382 58.7049 108.444L60.5245 109.265C61.5575 107.011 62.2631 104.54 62.6485 101.857L60.6669 101.586ZM58.7066 108.44C57.7761 110.45 56.617 111.943 55.2541 112.971L56.4542 114.562C58.1367 113.293 59.4847 111.511 60.5228 109.269L58.7066 108.44ZM55.2445 112.978C53.9602 113.971 52.5805 114.344 51.0491 114.135L50.7647 116.114C52.8475 116.399 54.766 115.867 56.4638 114.555L55.2445 112.978ZM51.0491 114.135C49.9271 113.981 48.8935 113.503 47.9363 112.664L46.6096 114.169C47.8343 115.243 49.2234 115.903 50.7647 116.114L51.0491 114.135ZM46.3084 113.156L45.4026 116.423L47.3317 116.944L48.2375 113.677L46.3084 113.156ZM45.4053 116.413C44.7599 118.653 44.2866 120.36 43.9876 121.53L45.9271 122.012C46.2184 120.873 46.6849 119.189 47.3289 116.954L45.4053 116.413ZM43.9869 121.533C43.9199 121.798 43.8567 121.983 43.8033 122.104C43.7435 122.24 43.7245 122.229 43.7837 122.176L45.1239 123.651C45.3689 123.429 45.5268 123.144 45.6348 122.899C45.7492 122.64 45.8449 122.338 45.9278 122.01L43.9869 121.533ZM43.7083 122.252C43.7612 122.193 43.7999 122.183 43.7708 122.195C43.7402 122.207 43.6659 122.229 43.5291 122.244L43.7338 124.23C44.2124 124.178 44.795 124.028 45.1993 123.575L43.7083 122.252ZM43.5291 122.244C43.0489 122.296 42.7006 122.294 42.4623 122.262L42.1779 124.241C42.6371 124.304 43.1631 124.293 43.7338 124.23L43.5291 122.244ZM42.4623 122.262C42.4035 122.254 42.4255 122.247 42.4843 122.282C42.5565 122.324 42.6502 122.41 42.7063 122.543L40.8608 123.329C41.1332 123.974 41.7463 124.182 42.1779 124.241L42.4623 122.262ZM42.6615 122.45C42.7055 122.53 42.7208 122.595 42.7261 122.625C42.7315 122.654 42.7299 122.665 42.7301 122.65C42.7304 122.635 42.7322 122.605 42.739 122.558C42.7457 122.511 42.7566 122.452 42.7732 122.38L40.8221 121.946C40.7702 122.171 40.7327 122.403 40.7286 122.626C40.7248 122.833 40.7471 123.134 40.9056 123.421L42.6615 122.45ZM42.7884 122.298C42.7788 122.365 42.7617 122.423 42.7742 122.376C42.7776 122.363 42.7835 122.341 42.7925 122.308C42.8105 122.243 42.8375 122.147 42.874 122.018C42.947 121.762 43.0556 121.384 43.2002 120.883C43.4893 119.882 43.9209 118.396 44.4952 116.424L42.5731 115.878C41.9988 117.85 41.5667 119.338 41.277 120.341C41.1322 120.843 41.0226 121.224 40.9485 121.484C40.9116 121.614 40.8829 121.716 40.863 121.788C40.8531 121.824 40.8445 121.855 40.8379 121.881C40.8347 121.893 40.8309 121.908 40.8273 121.922C40.8256 121.93 40.823 121.94 40.8203 121.953C40.8187 121.96 40.8122 121.99 40.8069 122.027L42.7884 122.298ZM44.4925 116.433C45.9156 111.711 47.1195 107.504 48.1038 103.814L46.1695 103.312C45.1921 106.976 43.9944 111.161 42.5758 115.869L44.4925 116.433ZM48.1019 103.821C49.1246 100.096 49.8199 96.9802 50.1786 94.4838L48.197 94.2128C47.8549 96.5942 47.1828 99.6214 46.1714 103.305L48.1019 103.821ZM50.1786 94.4838C50.2203 94.1931 50.264 93.9957 50.3021 93.8729C50.3111 93.844 50.3187 93.8226 50.3246 93.8076C50.3306 93.7925 50.3337 93.7865 50.3331 93.7876C50.3326 93.7885 50.3263 93.8009 50.3124 93.8207C50.2986 93.8403 50.2733 93.8731 50.2335 93.9106L48.8638 92.4623C48.5901 92.7204 48.4608 93.0659 48.3904 93.2925C48.3082 93.557 48.2463 93.87 48.197 94.2128L50.1786 94.4838ZM50.2188 93.9243C50.1628 93.975 50.14 93.967 50.2181 93.9441C50.2924 93.9223 50.4196 93.8982 50.6161 93.8861L50.5064 91.8918C49.9754 91.9243 49.3344 92.0357 48.8786 92.4487L50.2188 93.9243ZM50.5839 93.8876C50.9721 93.8763 51.2673 93.8691 51.4716 93.8657C51.5743 93.864 51.6496 93.8633 51.7004 93.8635C51.7261 93.8636 51.7406 93.8639 51.7468 93.8641C51.7655 93.8647 51.7322 93.8646 51.6828 93.8579L51.9672 91.8782C51.8713 91.8651 51.7586 91.8655 51.7204 91.8654C51.65 91.8651 51.5593 91.866 51.4514 91.8678C51.2345 91.8714 50.9295 91.879 50.5386 91.8903L50.5839 93.8876ZM51.6828 93.8579C51.7416 93.8659 51.7196 93.8723 51.6608 93.8378C51.5887 93.7953 51.495 93.7096 51.4388 93.5767L53.2843 92.7906C53.012 92.1455 52.3988 91.9372 51.9672 91.8782L51.6828 93.8579ZM51.4836 93.6691C51.4355 93.5816 51.4209 93.5119 51.4166 93.4861C51.412 93.4589 51.414 93.4523 51.4134 93.4747C51.4129 93.4957 51.4103 93.5326 51.4023 93.5884C51.3944 93.6435 51.382 93.7114 51.3637 93.7933L53.3176 94.2154C53.3706 93.9776 53.4089 93.7381 53.4146 93.5125C53.4198 93.3095 53.4035 92.996 53.2395 92.6981L51.4836 93.6691ZM51.3625 93.7987L50.7901 96.4333L52.7463 96.8447L53.3188 94.21L51.3625 93.7987ZM52.5178 97.2963C53.4325 96.2586 54.2701 95.581 55.0229 95.201L54.1288 93.4191C53.0692 93.9539 52.035 94.8289 51.0187 95.9818L52.5178 97.2963ZM55.0456 95.1892C55.7418 94.8153 56.564 94.6708 57.5595 94.8069L57.8438 92.8272C56.4931 92.6425 55.2314 92.8266 54.1061 93.4309L55.0456 95.1892ZM50.9159 113.373C52.7654 113.626 54.3745 112.975 55.6571 111.538L54.1661 110.214C53.2909 111.195 52.3311 111.548 51.2003 111.394L50.9159 113.373ZM55.6461 111.55C56.8587 110.235 57.7984 108.636 58.4774 106.775L56.5969 106.102C55.9963 107.749 55.1855 109.108 54.1771 110.202L55.6461 111.55ZM58.4774 106.775C59.1361 104.97 59.5852 103.265 59.8153 101.664L57.8337 101.393C57.627 102.832 57.2178 104.401 56.5969 106.102L58.4774 106.775ZM59.8153 101.664C60.0249 100.205 59.9727 98.892 59.5815 97.7759L57.6915 98.4466C57.9424 99.1624 58.0155 100.128 57.8337 101.393L59.8153 101.664ZM59.5815 97.7759C59.3779 97.1951 59.0676 96.6793 58.618 96.2848C58.1628 95.8852 57.6147 95.6542 57.0131 95.5719L56.7287 97.5516C56.9832 97.5864 57.1574 97.6722 57.2907 97.7891C57.4296 97.9111 57.574 98.1115 57.6915 98.4466L59.5815 97.7759ZM57.0131 95.5719C55.7484 95.399 54.5388 95.9759 53.4375 96.9311L54.745 98.4357C55.6379 97.6612 56.2814 97.4904 56.7287 97.5516L57.0131 95.5719ZM53.4499 96.9205C52.3611 97.8345 51.3795 99.0063 50.4965 100.415L52.1918 101.467C52.9866 100.199 53.8363 99.1987 54.7326 98.4463L53.4499 96.9205ZM50.4867 100.431C49.6384 101.843 49.0192 103.255 48.6419 104.667L50.576 105.17C50.898 103.965 51.4356 102.726 52.2016 101.451L50.4867 100.431ZM48.6437 104.66L47.016 110.59L48.9464 111.107L50.5742 105.177L48.6437 104.66ZM47.3319 111.613C47.9096 112.101 48.4582 112.499 48.9753 112.794L49.9753 111.056C49.5959 110.84 49.1484 110.521 48.6305 110.084L47.3319 111.613ZM49.0441 112.829C49.6264 113.103 50.2524 113.283 50.9159 113.373L51.2003 111.394C50.7225 111.328 50.2932 111.202 49.9065 111.021L49.0441 112.829ZM79.2897 115.324L78.3864 115.761L78.3934 115.775L78.4008 115.789L79.2897 115.324ZM78.7379 117.477L79.2383 118.339L79.2458 118.335L78.7379 117.477ZM76.9369 118.2L76.6773 117.237L76.6687 117.239L76.66 117.242L76.9369 118.2ZM73.4113 117.088L72.4561 117.393L72.4641 117.418L72.4734 117.443L73.4113 117.088ZM73.2431 114.546L74.2339 114.681L74.7253 111.26L72.4813 113.903L73.2431 114.546ZM70.3811 116.916L69.9424 116.021L69.9348 116.024L69.9272 116.028L70.3811 116.916ZM67.2077 117.402L67.0449 118.389L67.0552 118.391L67.0655 118.392L67.2077 117.402ZM63.8666 114.668L62.9463 115.067L62.9494 115.074L62.9526 115.082L63.8666 114.668ZM63.4018 108.452L62.413 108.303L62.4111 108.317L63.4018 108.452ZM65.4037 101.944L64.5087 101.502L64.5046 101.51L65.4037 101.944ZM69.0689 97.358L69.6587 98.1614L69.659 98.1612L69.0689 97.358ZM77.4936 98.1227L76.7552 98.802L78.1837 100.351L78.4843 98.2582L77.4936 98.1227ZM77.514 97.9802L76.5423 97.7468L76.5304 97.7953L76.5233 97.8446L77.514 97.9802ZM77.97 96.8314L77.2999 96.0936L77.2925 96.1003L77.2852 96.1072L77.97 96.8314ZM78.8875 96.5208L78.8649 95.5222L78.834 95.5231L78.8033 95.5259L78.8875 96.5208ZM80.7354 96.822L81.6581 96.429L81.6581 96.4289L80.7354 96.822ZM80.6669 97.6362L79.713 97.3398L79.7106 97.3472L79.7084 97.3547L80.6669 97.6362ZM75.6269 116.18L74.6361 116.044L74.385 117.793L76.0147 117.098L75.6269 116.18ZM77.5437 114.989L76.9437 114.193L76.9437 114.193L77.5437 114.989ZM75.1848 106.43L74.2249 106.153L74.2226 106.161L74.2205 106.169L75.1848 106.43ZM76.7853 100.69L77.7628 100.899L77.8656 100.432L77.5666 100.061L76.7853 100.69ZM75.4136 99.4369L74.8219 100.247L74.8532 100.269L74.8862 100.289L75.4136 99.4369ZM70.0183 100.201L70.7402 100.888L70.7402 100.888L70.0183 100.201ZM67.4949 104.264L66.5614 103.91L66.5581 103.918L66.555 103.927L67.4949 104.264ZM66.2689 108.747L65.2816 108.589L65.2798 108.601L65.2781 108.612L66.2689 108.747ZM72.1504 112.701L71.3845 112.063L71.3811 112.067L72.1504 112.701ZM78.3463 115.478C78.2001 115.458 78.1455 115.386 78.1773 115.419C78.2122 115.456 78.2874 115.554 78.3864 115.761L80.1929 114.888C80.0432 114.576 79.8605 114.276 79.6283 114.033C79.393 113.788 79.0622 113.557 78.6307 113.498L78.3463 115.478ZM78.4008 115.789C78.5983 116.169 78.6117 116.387 78.597 116.489L80.5786 116.76C80.6732 116.102 80.4878 115.454 80.1786 114.859L78.4008 115.789ZM78.597 116.489C78.6103 116.397 78.6411 116.337 78.6543 116.315C78.6669 116.294 78.6684 116.298 78.6407 116.326C78.5816 116.385 78.4568 116.485 78.23 116.62L79.2458 118.335C79.5492 118.155 79.8311 117.955 80.0553 117.73C80.2696 117.515 80.5166 117.191 80.5786 116.76L78.597 116.489ZM78.2376 116.615C77.8371 116.849 77.3223 117.06 76.6773 117.237L77.1965 119.163C77.965 118.952 78.651 118.682 79.2382 118.339L78.2376 116.615ZM76.66 117.242C76.1002 117.406 75.6052 117.445 75.163 117.384L74.8786 119.364C75.6412 119.468 76.4236 119.39 77.2138 119.158L76.66 117.242ZM75.163 117.384C74.9157 117.35 74.7593 117.275 74.6525 117.19C74.5456 117.104 74.4371 116.968 74.3492 116.733L72.4734 117.443C72.6659 117.957 72.9658 118.41 73.3953 118.753C73.825 119.096 74.3332 119.289 74.8786 119.364L75.163 117.384ZM74.3665 116.783C74.1728 116.167 74.1202 115.472 74.2339 114.681L72.2523 114.41C72.1021 115.456 72.1616 116.456 72.4561 117.393L74.3665 116.783ZM72.4813 113.903C71.609 114.93 70.7593 115.618 69.9424 116.021L70.8197 117.811C71.9512 117.253 73.0095 116.361 74.0049 115.189L72.4813 113.903ZM69.9272 116.028C69.1903 116.407 68.3445 116.548 67.3499 116.412L67.0655 118.392C68.417 118.577 69.6868 118.394 70.835 117.803L69.9272 116.028ZM67.3705 116.415C66.2336 116.236 65.3749 115.58 64.7806 114.255L62.9526 115.082C63.7786 116.923 65.1473 118.089 67.0449 118.389L67.3705 116.415ZM64.7869 114.269C64.2083 112.923 64.0379 111.057 64.3926 108.588L62.4111 108.317C62.0286 110.979 62.1681 113.257 62.9463 115.067L64.7869 114.269ZM64.3906 108.601C64.7496 106.319 65.3892 104.246 66.3027 102.377L64.5046 101.51C63.495 103.576 62.8 105.843 62.413 108.303L64.3906 108.601ZM66.2986 102.385C67.2421 100.499 68.3699 99.108 69.6587 98.1614L68.479 96.5547C66.8766 97.7318 65.5608 99.3983 64.5087 101.502L66.2986 102.385ZM69.659 98.1612C70.9311 97.2262 72.3131 96.8732 73.8603 97.0848L74.1447 95.1051C72.0776 94.8224 70.1705 95.3115 68.4788 96.5549L69.659 98.1612ZM73.8603 97.0848C74.8075 97.2144 75.774 97.7382 76.7552 98.802L78.232 97.4434C77.0313 96.1417 75.6705 95.3138 74.1447 95.1051L73.8603 97.0848ZM78.4843 98.2582L78.5048 98.1157L76.5233 97.8446L76.5028 97.9872L78.4843 98.2582ZM78.4858 98.2135C78.5574 97.9235 78.6214 97.7198 78.6741 97.5871C78.7002 97.5214 78.7179 97.4875 78.7245 97.4759C78.7339 97.4595 78.7144 97.4994 78.6549 97.5555L77.2852 96.1072C77.0412 96.3373 76.9 96.644 76.8136 96.8616C76.7143 97.1118 76.6251 97.412 76.5423 97.7468L78.4858 98.2135ZM78.6401 97.5692C78.6055 97.6006 78.5965 97.5931 78.6547 97.5734C78.7127 97.5538 78.8138 97.5301 78.9717 97.5158L78.8033 95.5259C78.2987 95.5717 77.7278 95.7059 77.2999 96.0936L78.6401 97.5692ZM78.9101 97.5195C79.2984 97.5082 79.5935 97.501 79.7979 97.4976C79.9006 97.4959 79.9759 97.4952 80.0266 97.4954C80.0523 97.4955 80.0668 97.4958 80.073 97.496C80.0918 97.4966 80.0584 97.4965 80.0091 97.4897L80.2935 95.5101C80.1976 95.497 80.0848 95.4974 80.0466 95.4973C79.9762 95.497 79.8856 95.4979 79.7777 95.4997C79.5607 95.5033 79.2557 95.5108 78.8649 95.5222L78.9101 97.5195ZM80.0091 97.4897C80.0946 97.5014 80.0924 97.5134 80.0467 97.4882C79.9883 97.456 79.8789 97.3721 79.8126 97.2151L81.6581 96.4289C81.3734 95.7546 80.7053 95.5664 80.2935 95.5101L80.0091 97.4897ZM79.8126 97.2151C79.7872 97.1548 79.7795 97.1082 79.7771 97.0866C79.7747 97.0651 79.7765 97.0603 79.7751 97.077C79.7738 97.0932 79.7699 97.1232 79.7598 97.169C79.7499 97.2145 79.7348 97.2711 79.713 97.3398L81.6208 97.9326C81.7458 97.5392 81.8811 96.957 81.6581 96.429L79.8126 97.2151ZM79.7084 97.3547C76.686 107.403 74.977 113.671 74.6361 116.044L76.6177 116.315C76.932 114.127 78.583 108.033 81.6254 97.9178L79.7084 97.3547ZM76.0147 117.098C76.641 116.832 77.3556 116.379 78.1438 115.784L76.9437 114.193C76.2092 114.747 75.6458 115.088 75.2391 115.261L76.0147 117.098ZM78.1438 115.784C78.3605 115.621 78.5086 115.526 78.5982 115.479C78.6428 115.455 78.6505 115.455 78.6285 115.462C78.6161 115.466 78.5867 115.474 78.5435 115.48C78.5008 115.485 78.4321 115.49 78.3463 115.478L78.6307 113.498C78.39 113.465 78.1823 113.512 78.052 113.552C77.9117 113.595 77.7815 113.655 77.6686 113.715C77.4433 113.835 77.1983 114.001 76.9437 114.193L78.1438 115.784ZM76.1447 106.707C77.0224 103.737 77.5674 101.787 77.7628 100.899L75.8077 100.482C75.6306 101.287 75.1086 103.163 74.2249 106.153L76.1447 106.707ZM77.5666 100.061C77.0738 99.4497 76.5344 98.9478 75.941 98.5844L74.8862 100.289C75.2436 100.508 75.6186 100.842 76.0039 101.32L77.5666 100.061ZM76.0053 98.6273C75.4121 98.1971 74.7139 97.9444 73.9459 97.8393L73.6615 99.819C74.1617 99.8874 74.5368 100.04 74.8219 100.247L76.0053 98.6273ZM73.9459 97.8393C72.1522 97.594 70.5734 98.1781 69.2964 99.5135L70.7402 100.888C71.5936 99.9958 72.5383 99.6654 73.6615 99.819L73.9459 97.8393ZM69.2964 99.5135C68.1296 100.734 67.221 102.205 66.5614 103.91L68.4283 104.619C69.0029 103.134 69.7765 101.896 70.7402 100.888L69.2964 99.5135ZM66.555 103.927C65.9525 105.573 65.5256 107.128 65.2816 108.589L67.2562 108.905C67.4761 107.588 67.8665 106.154 68.4347 104.602L66.555 103.927ZM65.2781 108.612C65.0046 110.516 65.0131 112.125 65.4228 113.337C65.6327 113.959 65.9585 114.507 66.4336 114.926C66.9139 115.349 67.4947 115.592 68.134 115.68L68.4184 113.7C68.1224 113.66 67.9181 113.56 67.7635 113.424C67.6037 113.283 67.4448 113.057 67.3201 112.688C67.0607 111.92 67.0009 110.685 67.2597 108.883L65.2781 108.612ZM68.134 115.68C69.9509 115.928 71.5559 114.979 72.9197 113.335L71.3811 112.067C70.2425 113.439 69.2648 113.816 68.4184 113.7L68.134 115.68ZM72.9163 113.339C74.3237 111.66 75.3887 109.426 76.1491 106.692L74.2205 106.169C73.5099 108.724 72.5519 110.67 71.3845 112.063L72.9163 113.339ZM94.2732 117.131L93.4835 116.523L93.4664 116.545L93.4506 116.568L94.2732 117.131ZM91.3363 119.685L91.7675 120.584L91.7736 120.581L91.3363 119.685ZM87.4291 120.216L87.2714 121.204L87.2791 121.205L87.2869 121.206L87.4291 120.216ZM83.1707 117.454L82.2741 117.904L82.2798 117.915L82.2858 117.926L83.1707 117.454ZM82.4475 111.687L81.4566 111.551L81.4548 111.565L82.4475 111.687ZM86.0889 101.866L86.8955 102.452L86.8955 102.452L86.0889 101.866ZM93.1437 98.6644L93.3168 97.6793L93.3014 97.6767L93.2859 97.6746L93.1437 98.6644ZM95.7316 99.8904L96.4063 99.1481L96.4063 99.1481L95.7316 99.8904ZM97.2519 102.472L96.2872 102.745L96.294 102.769L96.3021 102.794L97.2519 102.472ZM96.5579 103.927L96.7939 104.897L96.8057 104.894L96.8175 104.891L96.5579 103.927ZM95.8036 104.115L95.5677 103.146L95.5558 103.149L95.544 103.152L95.8036 104.115ZM94.5471 103.41L93.5908 103.712L93.6022 103.748L93.6163 103.784L94.5471 103.41ZM93.7802 101.997L93.0825 102.718L93.0825 102.718L93.7802 101.997ZM88.8061 102.867L88.0644 102.201L88.0586 102.208L88.0529 102.214L88.8061 102.867ZM86.4524 107.099L85.5041 106.786L85.5041 106.786L86.4524 107.099ZM90.2984 117.121L90.8007 117.982L90.8007 117.982L90.2984 117.121ZM92.0252 115.564L91.2355 114.956L91.2294 114.963L91.2235 114.971L92.0252 115.564ZM93.527 115.237L94.149 114.45L94.1238 114.43L94.0973 114.412L93.527 115.237ZM94.0499 115.647L94.7308 114.911L94.7023 114.885L94.672 114.861L94.0499 115.647ZM93.4506 116.568C92.7696 117.552 91.9214 118.287 90.8989 118.789L91.7736 120.581C93.1164 119.921 94.2261 118.953 95.0957 117.695L93.4506 116.568ZM90.905 118.786C89.9641 119.241 88.8662 119.404 87.5713 119.226L87.2869 121.206C88.9088 121.428 90.4157 121.237 91.7675 120.584L90.905 118.786ZM87.5867 119.229C85.811 118.958 84.6958 118.186 84.0556 116.981L82.2858 117.926C83.2743 119.787 84.9981 120.857 87.2714 121.204L87.5867 119.229ZM84.0673 117.004C83.4013 115.669 83.1617 113.959 83.4401 111.809L81.4548 111.565C81.1414 113.985 81.384 116.119 82.2741 117.904L84.0673 117.004ZM83.4382 111.822C83.9996 107.915 85.1683 104.81 86.8955 102.452L85.2823 101.28C83.31 103.971 82.0511 107.413 81.4567 111.551L83.4382 111.822ZM86.8955 102.452C87.7396 101.3 88.6617 100.529 89.6493 100.081C90.6323 99.635 91.7393 99.4816 93.0015 99.6543L93.2859 97.6746C91.6947 97.4569 90.1992 97.642 88.8306 98.2631C87.4666 98.8821 86.288 99.907 85.2823 101.28L86.8955 102.452ZM92.9706 99.6495C93.805 99.7903 94.4905 100.12 95.0569 100.633L96.4063 99.1481C95.5422 98.3666 94.5025 97.8794 93.3168 97.6793L92.9706 99.6495ZM95.0569 100.633C95.6124 101.135 96.0312 101.823 96.2872 102.745L98.2166 102.2C97.8761 100.973 97.2814 99.9394 96.4063 99.1481L95.0569 100.633ZM96.3021 102.794C96.3494 102.935 96.354 103.04 96.3421 103.123L98.3237 103.394C98.3847 102.969 98.3353 102.551 98.2017 102.151L96.3021 102.794ZM96.3421 103.123C96.3478 103.084 96.3619 103.038 96.387 102.993C96.4117 102.949 96.4382 102.922 96.453 102.909C96.4665 102.898 96.4661 102.902 96.4401 102.914C96.414 102.927 96.3687 102.945 96.2983 102.964L96.8175 104.891C97.4447 104.719 98.1937 104.299 98.3237 103.394L96.3421 103.123ZM96.322 102.958L95.5677 103.146L96.0395 105.084L96.7939 104.897L96.322 102.958ZM95.544 103.152C95.4665 103.173 95.4117 103.183 95.3768 103.186C95.3413 103.19 95.3365 103.187 95.3546 103.19L95.0702 105.169C95.4143 105.216 95.7584 105.162 96.0632 105.078L95.544 103.152ZM95.3546 103.19C95.44 103.201 95.5085 103.231 95.5556 103.259C95.5997 103.286 95.618 103.309 95.6153 103.305C95.6126 103.302 95.5961 103.282 95.5698 103.235C95.5438 103.189 95.5126 103.124 95.4779 103.037L93.6163 103.784C93.7333 104.078 93.8858 104.373 94.0964 104.617C94.3126 104.867 94.634 105.11 95.0702 105.169L95.3546 103.19ZM95.5034 103.109C95.2796 102.388 94.9586 101.74 94.478 101.277L93.0825 102.718C93.2265 102.857 93.4168 103.151 93.5908 103.712L95.5034 103.109ZM94.478 101.277C93.9797 100.796 93.3409 100.54 92.6454 100.445L92.361 102.425C92.7435 102.477 92.9561 102.596 93.0825 102.718L94.478 101.277ZM92.6454 100.445C90.8621 100.201 89.3067 100.825 88.0644 102.201L89.5477 103.533C90.3816 102.61 91.2909 102.279 92.361 102.425L92.6454 100.445ZM88.0529 102.214C86.9477 103.482 86.1027 105.013 85.5041 106.786L87.4007 107.413C87.9277 105.852 88.6517 104.561 89.5593 103.52L88.0529 102.214ZM85.5041 106.786C84.9254 108.5 84.523 110.122 84.3035 111.65L86.2851 111.921C86.4842 110.535 86.8539 109.033 87.4007 107.413L85.5041 106.786ZM84.3035 111.65C84.0394 113.488 84.1215 115.083 84.7172 116.305C85.3498 117.602 86.4894 118.336 87.9613 118.537L88.2457 116.557C87.3397 116.433 86.8222 116.044 86.5183 115.421C86.1776 114.722 86.0441 113.599 86.2851 111.921L84.3035 111.65ZM87.9613 118.537C88.9688 118.675 89.9286 118.492 90.8007 117.982L89.7961 116.26C89.3269 116.535 88.8234 116.636 88.2457 116.557L87.9613 118.537ZM90.8007 117.982C91.5922 117.518 92.2684 116.907 92.8269 116.157L91.2235 114.971C90.8208 115.512 90.3458 115.938 89.7961 116.26L90.8007 117.982ZM92.8149 116.173C92.8672 116.106 92.9107 116.059 92.9438 116.028C92.977 115.997 92.9952 115.986 92.9971 115.985C92.9981 115.985 92.9813 115.994 92.9481 116.002C92.9133 116.009 92.8737 116.011 92.8346 116.006L93.119 114.026C92.2645 113.91 91.6308 114.446 91.2355 114.956L92.8149 116.173ZM92.8346 116.006C92.8536 116.009 92.8926 116.018 92.9567 116.062L94.0973 114.412C93.8082 114.214 93.4804 114.076 93.119 114.026L92.8346 116.006ZM92.9049 116.024L93.4279 116.434L94.672 114.861L94.149 114.45L92.9049 116.024ZM93.369 116.384C93.4371 116.447 93.487 116.499 93.5225 116.541C93.5584 116.584 93.5749 116.61 93.5805 116.62C93.5928 116.642 93.5392 116.558 93.5613 116.404L95.5429 116.675C95.6563 115.886 95.1252 115.274 94.7308 114.911L93.369 116.384ZM93.5613 116.404C93.5659 116.373 93.5705 116.41 93.4835 116.523L95.0628 117.74C95.2931 117.444 95.4838 117.087 95.5429 116.675L93.5613 116.404ZM109.328 117.737L110.009 117L109.968 116.963L109.923 116.93L109.328 117.737ZM109.552 119.221L108.762 118.612L108.759 118.617L109.552 119.221ZM106.52 121.762L106.088 120.863L106.082 120.866L106.076 120.869L106.52 121.762ZM102.565 122.286L102.407 123.274L102.415 123.275L102.423 123.276L102.565 122.286ZM98.4492 119.543L97.546 119.98L97.5515 119.991L97.5574 120.003L98.4492 119.543ZM97.7735 113.783L96.7827 113.647L96.7809 113.661L97.7735 113.783ZM99.7892 106.84L98.8845 106.419L98.8845 106.419L99.7892 106.84ZM103.529 102.071L104.12 102.874L104.12 102.874L103.529 102.071ZM112.199 102.821L111.321 103.306L111.324 103.313L111.328 103.32L112.199 102.821ZM109.149 111.56L109.613 112.442L109.623 112.437L109.149 111.56ZM100.743 113.026L100.793 112.028L99.8821 111.988L99.7525 112.891L100.743 113.026ZM100.876 117.841L99.9439 118.211L99.9439 118.211L100.876 117.841ZM105.373 119.279L104.884 118.411L104.871 118.418L104.859 118.426L105.373 119.279ZM107.256 117.647L108.008 118.303L108.027 118.28L108.046 118.256L107.256 117.647ZM108.758 117.32L109.353 116.513L109.341 116.504L109.328 116.495L108.758 117.32ZM104.146 105.207L104.912 105.845L104.918 105.838L104.146 105.207ZM101.486 110.221L100.536 109.911L100.116 111.17L101.442 111.22L101.486 110.221ZM108.648 118.474C108.716 118.536 108.765 118.589 108.801 118.631C108.837 118.674 108.853 118.7 108.859 118.71C108.871 118.732 108.818 118.648 108.84 118.494L110.821 118.765C110.935 117.975 110.404 117.363 110.009 117L108.648 118.474ZM108.84 118.494C108.844 118.462 108.849 118.5 108.762 118.612L110.341 119.83C110.572 119.533 110.762 119.176 110.821 118.765L108.84 118.494ZM108.759 118.617C107.967 119.648 107.075 120.386 106.088 120.863L106.951 122.66C108.257 122.03 109.386 121.074 110.345 119.825L108.759 118.617ZM106.076 120.869C105.181 121.317 104.076 121.484 102.707 121.297L102.423 123.276C104.097 123.505 105.629 123.322 106.964 122.654L106.076 120.869ZM102.723 121.299C101.023 121.038 99.955 120.283 99.3411 119.084L97.5574 120.003C98.5088 121.86 100.185 122.933 102.407 123.274L102.723 121.299ZM99.3525 119.107C98.7126 117.774 98.487 116.06 98.7662 113.905L96.7809 113.661C96.4682 116.075 96.6932 118.202 97.546 119.98L99.3525 119.107ZM98.7643 113.918C99.1206 111.438 99.767 109.222 100.694 107.262L98.8845 106.419C97.861 108.584 97.1636 110.996 96.7828 113.647L98.7643 113.918ZM100.694 107.262C101.613 105.318 102.762 103.872 104.12 102.874L102.939 101.268C101.26 102.503 99.9161 104.237 98.8845 106.419L100.694 107.262ZM104.12 102.874C105.418 101.919 106.879 101.552 108.565 101.783L108.85 99.8032C106.668 99.5049 104.677 99.9898 102.939 101.268L104.12 102.874ZM108.565 101.783C110.083 101.991 110.906 102.553 111.321 103.306L113.077 102.335C112.261 100.853 110.756 100.064 108.85 99.8032L108.565 101.783ZM111.328 103.32C111.833 104.205 112.014 105.172 111.858 106.262L113.839 106.533C114.056 105.026 113.804 103.609 113.069 102.322L111.328 103.32ZM111.858 106.262C111.578 108.21 110.551 109.665 108.675 110.683L109.623 112.437C112.024 111.134 113.464 109.147 113.839 106.533L111.858 106.262ZM108.685 110.678C106.764 111.694 104.159 112.175 100.793 112.028L100.693 114.024C104.267 114.181 107.266 113.684 109.613 112.442L108.685 110.678ZM99.7525 112.891L99.6296 113.746L101.611 114.017L101.734 113.162L99.7525 112.891ZM99.6296 113.746C99.3839 115.456 99.4553 116.968 99.9439 118.211L101.808 117.471C101.492 116.666 101.393 115.538 101.611 114.017L99.6296 113.746ZM99.9439 118.211C100.485 119.587 101.571 120.398 103.05 120.601L103.334 118.621C102.53 118.511 102.072 118.143 101.808 117.471L99.9439 118.211ZM103.05 120.601C104.084 120.742 105.063 120.631 105.887 120.133L104.859 118.426C104.55 118.612 104.075 118.722 103.334 118.621L103.05 120.601ZM105.862 120.148C106.593 119.735 107.306 119.103 108.008 118.303L106.505 116.992C105.892 117.692 105.35 118.148 104.884 118.411L105.862 120.148ZM108.046 118.256C108.098 118.189 108.142 118.142 108.175 118.111C108.208 118.08 108.226 118.069 108.228 118.068C108.229 118.068 108.212 118.078 108.179 118.085C108.144 118.093 108.105 118.095 108.066 118.089L108.35 116.11C107.495 115.993 106.862 116.529 106.466 117.039L108.046 118.256ZM108.066 118.089C108.085 118.092 108.124 118.101 108.188 118.145L109.328 116.495C109.039 116.297 108.711 116.159 108.35 116.11L108.066 118.089ZM108.163 118.127L108.733 118.544L109.923 116.93L109.353 116.513L108.163 118.127ZM108.216 102.526C106.301 102.264 104.66 103.01 103.373 104.577L104.918 105.838C105.825 104.733 106.803 104.352 107.932 104.506L108.216 102.526ZM103.379 104.569C102.187 105.992 101.247 107.783 100.536 109.911L102.435 110.532C103.086 108.582 103.919 107.031 104.912 105.845L103.379 104.569ZM101.442 111.22C104.109 111.32 106.298 111.048 107.912 110.302C109.589 109.527 110.637 108.236 110.891 106.469L108.909 106.198C108.762 107.219 108.207 107.969 107.08 108.49C105.889 109.04 104.072 109.318 101.53 109.223L101.442 111.22ZM110.891 106.469C111.029 105.509 110.953 104.576 110.466 103.824C109.959 103.042 109.137 102.652 108.216 102.526L107.932 104.506C108.469 104.58 108.681 104.759 108.783 104.917C108.904 105.104 109.012 105.48 108.909 106.198L110.891 106.469Z" fill="white"/>
<defs>
<linearGradient id="paint0_linear" x1="72.5" y1="0" x2="72.5" y2="148" gradientUnits="userSpaceOnUse">
<stop stop-color="#FF00F5"/>
<stop offset="1" stop-color="white" stop-opacity="0"/>
</linearGradient>
<linearGradient id="paint1_linear" x1="72.5" y1="0" x2="72.5" y2="148" gradientUnits="userSpaceOnUse">
<stop stop-color="#6DE5FF"/>
<stop offset="1" stop-color="white" stop-opacity="0"/>
</linearGradient>
</defs>
</svg>
