<svg width="102" height="22" viewBox="0 0 102 22" fill="none" xmlns="http://www.w3.org/2000/svg">
<rect x="41.5" y="7.5" width="12" height="13" fill="#C4C4C4" stroke="black"/>
<path d="M43 19V9" stroke="black" stroke-width="5"/>
<path d="M47 19V9" stroke="black" stroke-width="5"/>
<path d="M51 19V9" stroke="black" stroke-width="5"/>
<rect x="39.5" y="4.5" width="16" height="2" fill="black" stroke="black"/>
<rect x="0.5" y="4.5" width="19" height="17" rx="4.5" fill="white" stroke="black"/>
<path d="M9 8V19" stroke="black" stroke-width="2"/>
<path d="M3 13H15" stroke="black" stroke-width="2"/>
<path d="M68 18.1849C68.8434 18.2856 70.8586 18.8142 71.1944 17.7893C71.3108 17.4342 71.4732 16.8712 72.1883 17.0265C73.5719 17.3268 73.3523 20.1626 74.7083 20.1626C75.1866 20.1626 75.4029 18.7864 75.6667 18.5239C76.33 17.8639 77.8561 18.2882 78.7546 17.9306C80.0295 17.4232 79.3624 20.3054 79.5355 20.9255C79.719 21.5827 80.8001 17.6763 81.4167 17.6763C82.5272 17.6763 82.3155 19.4036 84.1142 18.4674C86.5738 17.1872 85.5111 17.2121 87.6636 18.3544C88.2776 18.6802 88.3817 16.9998 89.1188 17.0265C90.2528 17.0675 90.6942 17.4546 91 18.1849" stroke="black" stroke-linecap="round" stroke-linejoin="round"/>
<path d="M97.247 10.3722C96.0833 12.7819 94.7136 14.8567 93.4539 16.2624C92.8217 16.9677 92.2378 17.4815 91.7419 17.7886C91.234 18.1032 90.9207 18.1418 90.7424 18.0929C90.5641 18.044 90.357 17.8626 90.2362 17.3756C90.1183 16.9001 90.1092 16.2236 90.2265 15.3771C90.4603 13.69 91.1807 11.4371 92.3445 9.02737C93.5082 6.61764 94.8779 4.54286 96.1376 3.13718C96.7697 2.43186 97.3537 1.91807 97.8496 1.61093C98.3574 1.29641 98.6708 1.2578 98.8491 1.30671C99.0274 1.35561 99.2345 1.53699 99.3553 2.02393C99.4732 2.49945 99.4823 3.17595 99.365 4.02247C99.1311 5.70958 98.4108 7.96245 97.247 10.3722Z" fill="black" stroke="black"/>
</svg>
